<?xml version="1.0" encoding="UTF-8" standalone="no"?>
<!-- Created with Inkscape (http://www.inkscape.org/) -->

<svg
   xmlns:dc="http://purl.org/dc/elements/1.1/"
   xmlns:cc="http://creativecommons.org/ns#"
   xmlns:rdf="http://www.w3.org/1999/02/22-rdf-syntax-ns#"
   xmlns:svg="http://www.w3.org/2000/svg"
   xmlns="http://www.w3.org/2000/svg"
   xmlns:sodipodi="http://sodipodi.sourceforge.net/DTD/sodipodi-0.dtd"
   xmlns:inkscape="http://www.inkscape.org/namespaces/inkscape"
   id="svg2985"
   version="1.1"
   inkscape:version="0.48.5 r10040"
   width="1000"
   height="414.18948"
   xml:space="preserve"
   sodipodi:docname="A.svg"><metadata
     id="metadata2991"><rdf:RDF><cc:Work
         rdf:about=""><dc:format>image/svg+xml</dc:format><dc:type
           rdf:resource="http://purl.org/dc/dcmitype/StillImage" /><dc:title></dc:title></cc:Work></rdf:RDF></metadata><defs
     id="defs2989"><clipPath
       clipPathUnits="userSpaceOnUse"
       id="clipPath3141"><path
         d="m 0,0 850.394,0 0,1190.551 L 0,1190.551 0,0 z"
         id="path3143"
         inkscape:connector-curvature="0" /></clipPath><clipPath
       clipPathUnits="userSpaceOnUse"
       id="clipPath3447"><path
         d="m 303.602,373.312 244.346,0 0,338.874 -244.346,0 0,-338.874 z"
         id="path3449"
         inkscape:connector-curvature="0" /></clipPath><clipPath
       clipPathUnits="userSpaceOnUse"
       id="clipPath3461"><path
         d="m 569.809,555.558 243.828,0 0,156.369 -243.828,0 0,-156.369 z"
         id="path3463"
         inkscape:connector-curvature="0" /></clipPath><clipPath
       clipPathUnits="userSpaceOnUse"
       id="clipPath3477"><path
         d="m 569.809,373.441 243.828,0 0,156.369 -243.828,0 0,-156.369 z"
         id="path3479"
         inkscape:connector-curvature="0" /></clipPath><clipPath
       clipPathUnits="userSpaceOnUse"
       id="clipPath3503"><path
         inkscape:connector-curvature="0"
         d="m 0,0 680.315,0 0,878.74 L 0,878.74 0,0 z"
         id="path3505" /></clipPath></defs><sodipodi:namedview
     pagecolor="#ffffff"
     bordercolor="#666666"
     borderopacity="1"
     objecttolerance="10"
     gridtolerance="10"
     guidetolerance="10"
     inkscape:pageopacity="0"
     inkscape:pageshadow="2"
     inkscape:window-width="1010"
     inkscape:window-height="1023"
     id="namedview2987"
     showgrid="false"
     fit-margin-left="0.5"
     fit-margin-bottom="0.5"
     fit-margin-top="0.5"
     fit-margin-right="0.5"
     inkscape:zoom="0.51167528"
     inkscape:cx="582.57345"
     inkscape:cy="16.589282"
     inkscape:window-x="908"
     inkscape:window-y="-11"
     inkscape:window-maximized="0"
     inkscape:current-layer="g2993" /><g
     id="g2993"
     inkscape:groupmode="layer"
     inkscape:label="plusmvo2013"
     transform="matrix(1.25,0,0,-1.25,-72.842862,1336.877)"><g
       transform="matrix(5.4930232,0,0,5.4930232,-326.90528,592.87406)"
       id="g3499"><g
         id="g3501"
         clip-path="url(#clipPath3503)"><g
           id="g3511"
           transform="translate(169.7001,40.927)"
           style="fill:#e2231b;fill-opacity:1"><path
             inkscape:connector-curvature="0"
             d="m 0,0 c 2.174,0.22 8.512,1.611 8.573,8.586 0.019,2.692 -2.561,4.111 -3.19,5.985 -0.397,1.163 -0.296,3.56 1.527,4.277 2.266,0.89 2.73,-0.593 3.515,-1.707 0.326,-0.454 1.365,-0.349 1.717,0.024 0.496,0.512 1.217,1.282 1.523,2.585 0.28,1.196 -0.995,3.204 -4.674,3.081 C 7.7,22.799 5.885,22.581 3.301,20.12 2.102,18.985 -1.685,13.807 1.115,9.355 1.878,8.149 3.7,6.664 2.525,5.532 0.698,3.773 -2.443,6.497 -3.034,7.323 -3.302,7.706 -4.081,8.149 -4.592,7.396 -4.883,6.964 -6.289,4.458 -6.07,3.524 -5.444,0.633 -1.707,-0.175 0,0 m -4.198,20.478 c 1.136,0.17 4.831,0.606 4.69,-0.936 -0.221,-2.51 -1.163,-2.471 -4.464,-3.18 -0.627,-0.139 -1.289,-0.281 -1.985,-0.43 -0.054,-0.168 -0.107,-0.266 -0.148,-0.274 -1.248,-5.835 -1.346,-8.043 -2.022,-13.132 -0.297,-2.229 0.136,-4.628 -2.515,-4.999 -2.653,-0.371 -3.564,2.356 -3.55,4.69 0.002,4.125 2.094,12.208 2.103,12.258 -2.699,-0.69 -5.592,-1.471 -8.476,-2.371 -3.422,-5.824 -9.675,-19.85 -10.451,-23.359 -0.629,-2.808 -1.896,-3.672 -3.769,-2.856 -1.866,0.819 -2.91,2.682 -2.27,4.793 1.74,5.8 8.321,18.374 8.42,18.599 -2.431,-0.978 -4.712,-2.03 -6.671,-3.149 -1.219,-0.695 -2.772,-0.031 -3.092,1.429 -0.221,1.041 -0.701,3.086 1.669,4.169 3.809,1.739 7.947,3.185 12.081,4.38 8.778,14.771 19.677,29.936 22.82,29.653 1.367,-0.117 1.151,-1.585 2.346,-2.921 1.191,-1.323 1.354,-2.138 -0.064,-5.658 -2.901,-7.229 -2.658,-5.539 -5.465,-16.828 0.279,0.04 0.542,0.082 0.813,0.122 m -0.999,15.973 c -3.954,-5.199 -8.204,-11.816 -12.052,-18.424 2.245,0.514 4.415,0.958 6.436,1.339 1.662,6.133 3.647,12.403 5.616,17.085 m 28.922,-8.367 c 1.905,0.342 3.561,2.055 3.708,3.828 0.145,1.762 -1.278,2.914 -3.178,2.572 -1.905,-0.343 -3.569,-2.052 -3.71,-3.825 -0.155,-1.758 1.277,-2.916 3.18,-2.575 M 43.693,16.655 c 0.868,1.367 2.701,0.92 2.214,-0.345 C 45.48,15.218 44.68,13.448 42.643,11.033 40.133,7.959 37.831,6.461 35.745,6.183 34.058,5.953 32.872,6.663 32.584,8.174 L 32.48,8.478 C 32.472,8.753 32.338,8.874 32.194,8.851 32.044,8.833 31.927,8.727 31.648,8.46 29.54,6.217 27.906,4.838 25.965,4.573 23.036,4.186 21.337,6.465 21.754,9.775 20.973,8.619 20.162,7.508 19.424,6.694 17.138,4.155 15.263,2.537 13.526,2.313 11.19,1.998 9.963,3.668 10.358,6.629 c 0.178,1.347 0.68,2.923 1.533,4.909 0.889,1.986 2.276,4.718 3.55,6.945 1.021,1.825 2.005,3.887 2.148,4.589 0.125,0.559 0.188,0.66 0.615,0.947 0.543,0.384 1.622,0.841 2.267,0.894 1.659,0.125 3.853,-1.074 2.411,-3.554 L 22.326,20.422 C 22.249,20.226 21.254,18.432 20.686,17.449 19.635,15.802 18.28,13.346 17.436,11.682 16.91,10.695 16.658,9.936 16.583,9.38 16.534,9.014 16.655,8.796 16.951,8.837 c 0.401,0.052 0.993,0.45 1.712,1.142 0.745,0.782 1.207,1.297 2.856,3.481 l 0.592,0.761 c 0.477,0.623 4.253,5.552 5.378,6.77 3.046,3.628 6.483,6.201 8.685,6.486 1.444,0.197 2.621,-0.464 3.178,-1.8 0.398,-1.094 0.477,-1.168 1.451,-1.586 1.539,-0.619 2.046,-1.137 1.939,-1.93 -0.064,-0.558 -0.274,-0.996 -1.255,-2.543 -0.695,-1.186 -1.456,-2.566 -2.002,-3.637 -1.156,-2.281 -1.788,-3.828 -0.669,-4.221 0.417,-0.147 1.206,0.257 2.187,1.288 1.082,1.145 1.845,2.278 2.69,3.607 M 31.762,12.601 c 1.985,2.442 5.072,8.065 5.267,9.595 0.091,0.701 -0.116,0.985 -0.668,0.912 -0.69,-0.089 -2.223,-1.347 -3.682,-3.137 -2.144,-2.567 -5.028,-7.745 -5.255,-9.46 -0.087,-0.696 0.186,-1.153 0.689,-1.094 0.792,0.108 2.166,1.294 3.649,3.184 m -69.3,11.525 c 1.483,0.273 4.836,-1.754 3.227,-3.628 -1.653,-1.928 -3.533,-1.544 -6.481,-2.768 -1.66,-0.696 -2.942,-2.189 -4.763,-4.813 -2.324,-3.408 -3.382,-6.743 -3.586,-9.254 -0.007,-0.743 -0.066,-1.119 -0.457,-1.374 -3.891,-2.541 -5.087,-0.624 -4.993,1.7 0.024,0.556 0.227,1.431 0.563,2.5 -2.986,-4.491 -5.639,-6.752 -7.37,-7.063 -2.323,-0.422 -3.632,1.183 -3.383,4.171 0.112,1.358 0.53,2.947 1.28,4.96 0.799,2.033 2.051,4.83 3.215,7.108 0.301,0.596 0.579,1.166 0.826,1.679 -1.758,-0.339 -4.265,-0.856 -7.205,-1.526 -0.047,-0.098 -0.072,-0.153 -0.102,-0.16 -1.254,-5.835 -1.355,-8.041 -2.027,-13.13 -0.292,-2.231 0.138,-4.63 -2.512,-5.001 -2.654,-0.373 -3.536,2.351 -3.555,4.69 -0.027,2.365 0.406,5.228 2.093,12.137 -2.761,-0.708 -5.672,-1.511 -8.555,-2.401 -0.041,-0.06 -0.069,-0.094 -0.069,-0.094 -4.782,-8.761 -9.513,-19.605 -10.296,-23.116 -0.627,-2.806 -1.894,-3.67 -3.765,-2.859 -1.865,0.824 -2.953,2.698 -2.269,4.798 1.222,3.756 4.972,12.201 8.306,18.261 -0.03,-0.008 0,0.078 0.075,0.227 -2.445,-0.95 -4.716,-1.971 -6.703,-3.058 -1.304,-0.71 -2.948,-0.054 -3.265,1.407 -0.23,1.038 -0.722,3.084 1.817,4.197 3.829,1.674 7.979,3.092 12.12,4.297 8.799,14.799 19.727,30.033 22.882,29.753 1.359,-0.12 1.142,-1.588 2.343,-2.924 1.191,-1.328 1.35,-2.14 -0.065,-5.658 -2.904,-7.222 -2.666,-5.542 -5.46,-16.807 5.112,0.846 9.57,1.335 9.985,1.4 1.416,0.204 3.846,-0.76 2.564,-3.517 0,0 -1.353,-2.372 -1.879,-3.388 -0.967,-1.683 -2.202,-4.205 -2.965,-5.911 -0.475,-1.006 -0.689,-1.772 -0.727,-2.337 -0.038,-0.367 0.093,-0.575 0.39,-0.52 0.397,0.07 0.965,0.492 1.66,1.209 0.671,0.786 2.945,2.658 7.008,9.5 l 1.08,2.216 c 0.346,0.658 0.836,1.831 0.937,2.361 0.113,0.797 0.137,1.003 0.797,1.422 1.082,0.683 3.015,1.246 4.133,0.52 1.058,-0.695 0.786,-1.957 -0.093,-3.49 3.541,3.99 4.456,4.148 5.244,4.284 m -33.944,-4.793 c 1.656,6.146 3.645,12.432 5.624,17.115 -3.98,-5.221 -8.249,-11.87 -12.103,-18.511 2.239,0.529 4.416,0.99 6.479,1.396 m 20.519,12.647 c 1.906,0.351 3.327,-0.81 3.18,-2.574 -0.141,-1.765 -1.808,-3.483 -3.712,-3.826 -1.9,-0.337 -3.328,0.816 -3.179,2.59 0.151,1.762 1.805,3.465 3.711,3.81"
             style="fill:#e2231b;fill-opacity:1;fill-rule:nonzero;stroke:none"
             id="path3513" /></g></g></g></g></svg>