<?xml version="1.0" encoding="utf-8"?>
<!-- Generator: Adobe Illustrator 18.1.1, SVG Export Plug-In . SVG Version: 6.00 Build 0)  -->
<svg version="1.0" id="Layer_1" xmlns="http://www.w3.org/2000/svg" xmlns:xlink="http://www.w3.org/1999/xlink" x="0px" y="0px"
	 viewBox="0 0 268 88" enable-background="new 0 0 268 88" xml:space="preserve">
<path fill="#0F2B51" d="M234.5,33.1c-1.7-0.2-2.6-0.3-4.3-0.3c-1.7,0-3.4,0.1-5.1,0.2c-1.9,0.2-3.1,0.2-4.7,1.5
	c-0.7,0.5-3.8,2.5-6,4.1c-2,1.4-3.8,2.8-5.9,4.2c-1.2,0.8-2.6,1.7-4.1,2.6c0.4-0.6,0.4-0.7,0.5-0.9c1.7-2.5,3.2-4.7,5-7.2
	c0.9-1.2,2-2.7,2.8-3.9c1.5-2.2,5.3-7.6,6.9-9.8c1.5-2.1,3.3-4.1,4.8-6.1c2.5-3.3,4.5-6.8,7.3-9.8c0.3-0.3,0.5-0.9,0.3-1.2
	c-0.3-0.4-0.8-0.5-1.3-0.3c-3.6,0.8-6.3,1.1-10.4,2.2c-2.1,0.4-4,1-4.7,1.3c-0.3,0.1-0.5,0.7-0.4,0.9c0.1,0.3,0.1,0.5,0.8,0.6
	c0.6,0.1,1-0.1,1.8-0.3c0.3-0.1,1.2-0.3,1.5-0.2c0,0.3-0.5,1.1-0.7,1.4c-2,3.1-4.1,6.1-6.2,9.2c-0.9,1.4-1.8,2.8-2.7,4.2
	c-1.3,1.9-4.8,6.8-6.1,8.7c-1,1.5-2.1,3.1-3.1,4.6c-0.9,1.4-2,2.8-2.9,4.3c-1.1,1.7-2.2,3.5-3.3,5.2c-1.2,1.8-2.5,3.6-3.7,5.4
	c-2.5,3.9-4.9,7.8-7.4,11.7c-1.2,2-2.4,4-3.7,5.9c-0.8,1.2-1.5,2.5-1.7,3.9c-0.1,0.5,0.1,1.1,0.3,1.4c0.1,0.2,0.8,0.2,1.2,0
	c2.9-1.3,5.8-2.7,8.7-3.9c1.6-0.7,2-1,3.6-1.7c0.6-0.3,0.9-0.7,0.9-1.1c0-0.7-0.7-0.8-1.2-0.7c-0.9,0.1-1.8,0.6-1.7,0.4
	c3.5-5.8,6.6-11.5,10.7-16.5c0.1,0.3,0.1,0.6,0.2,0.9c0.2,1.2,0.4,2.4,0.7,3.6l3.9,18c0.5,1.9,1,4.1,1.6,6c0.7,2.2,1.1,3.3,3.2,3.6
	c0,0,2.8,0.5,4.1,0.5c5.8-0.1,4.8-1.4,4.8-1.4c-0.5-1.2-1.5-2.5-2.1-3.7c-1.2-2.4-1.8-2.9-2.3-4.8l-5.8-17.3
	c-0.7-2.3-1.3-4.6-1.9-6.9c-0.1-0.5-0.2-1.1-0.3-1.7l2.3-0.9c0.3-0.2,1.8-0.9,2-1c2.8-1.5,5.6-2.9,8.3-4.4c2-1.2,6.2-4,8.3-5.2
	c1.8-1,3.2-1.6,5.2-2.5c1-0.4,1.8-0.6,2.5-1.6C235.3,33.9,235.1,33.2,234.5,33.1"/>
<path fill="#0F2B51" d="M226.8,66.1c-0.7-0.2-0.6-1.4-0.2-2.5c0.5-1.7,1.4-3,2.2-4.4c0.8-1.5,1.8-3,2.8-4.4c0.5-0.7,3.5-5.4,4.8-6.8
	c1.8-2,3.9-4,5.9-5.3c1.1-0.7,1.7-1.3,2.9-1.9c0.4-0.2,1.4-0.5,1.7-0.6c2-0.7,3.9-1,5.8-0.6c0.1,0,0.3,0,0.4,0.1
	c0.4,0.1-0.2,0.7-0.2,0.7C244.8,50,227.8,66.5,226.8,66.1 M246.6,68.5c0.7-0.3,1-0.8,0.7-1.3c-0.1-0.3-0.8-0.5-1.2-0.5
	c-0.5,0-1,0.2-1.5,0.4c0,0,0-0.1,0-0.2c0.3-0.4,0.5-0.6,0.6-0.9c1.3-2,2.5-4.1,3.8-6.1c0.9-1.5,1.9-3,2.9-4.4
	c0.9-1.4,1.8-2.9,2.7-4.3c0.8-1.3,1.7-2.5,2.6-3.8c1.1-1.6,2.2-3.1,3.2-4.7c1.8-2.7,4.2-5,5.3-8.2c0.3-0.9,0.1-1-0.6-0.9
	c-0.9,0-1.8,0.1-2.7,0.2c-1,0.1-2,0.1-3,0.2c-2.3,0.2-4.6,0.3-6.9,0.6c-1.3,0.1-1.7,0.1-3,0.3c-0.7,0.1-1.5,0.2-2.2,0.3
	c-0.9,0.2-2.5,0.4-3.3,0.6c-2.6,0.6-5.3,1.3-7.4,3c-1.8,1.5-3.6,3-5.2,4.8c-2.1,2.3-3.9,4.8-5.7,7.4c-1.4,2-2.7,4.1-3.9,6.3
	c-1,1.9-1.8,3.8-2.7,5.8c-1.4,3-2.6,6.1-2.2,9.5c0.2,1.9,0.8,2.5,2.7,2c0.9-0.2,1.7-0.5,2.6-0.8c2.6-1.2,5-2.7,7.4-4.5
	c1.4-1.1,1.9-1.6,2.7-2.4c1.2-1.2,2.2-2,3.5-3.2c1.7-1.5,3.3-2.9,5-4.4c0.2-0.1-0.1,0.6-0.2,0.9c-0.9,1.6-1.7,3.1-2.6,4.6
	c-0.6,1-1,2.1-1.6,3.1c-0.8,1.6-1.7,3.2-2.5,4.8c-0.2,0.4-0.1,1.1,0.1,1.5c0.2,0.2,0.9,0.1,1.4,0c0.6-0.2,1.2-0.6,1.8-1
	c1.5-0.8,2.9-1.7,4.4-2.4C243.2,69.9,244.9,69.2,246.6,68.5"/>
<path fill="#0F2B51" d="M130.2,66.1c-0.7-0.2-0.6-1.4-0.2-2.5c0.5-1.7,1.4-3,2.2-4.4c0.8-1.5,1.8-3,2.8-4.4c0.5-0.7,3.5-5.4,4.8-6.8
	c1.8-2,3.9-4,5.9-5.3c1.1-0.7,1.7-1.3,2.9-1.9c0.4-0.2,1.4-0.5,1.7-0.6c2-0.7,3.9-1,5.8-0.6c0.1,0,0.3,0,0.4,0.1
	c0.4,0.1-0.2,0.7-0.2,0.7C148.2,50,131.2,66.5,130.2,66.1 M150,68.5c0.7-0.3,1-0.8,0.7-1.3c-0.1-0.3-0.8-0.5-1.2-0.5
	c-0.5,0-1,0.2-1.5,0.4c0,0,0-0.1,0-0.2c0.3-0.4,0.5-0.6,0.6-0.9c1.3-2,2.5-4.1,3.8-6.1c0.9-1.5,1.9-3,2.9-4.4
	c0.9-1.4,1.8-2.9,2.7-4.3c0.8-1.3,1.7-2.5,2.6-3.8c1.1-1.6,2.2-3.1,3.2-4.7c1.8-2.7,4.2-5,5.3-8.2c0.3-0.9,0.1-1-0.6-0.9
	c-0.9,0-1.8,0.1-2.7,0.2c-1,0.1-2,0.1-3,0.2c-2.3,0.2-4.6,0.3-6.9,0.6c-1.3,0.1-1.7,0.1-3,0.3c-0.7,0.1-1.5,0.2-2.2,0.3
	c-0.9,0.2-2.5,0.4-3.3,0.6c-2.6,0.6-5.3,1.3-7.4,3c-1.8,1.5-3.6,3-5.2,4.8c-2.1,2.3-3.9,4.8-5.7,7.4c-1.4,2-2.7,4.1-3.9,6.3
	c-1,1.9-1.8,3.8-2.7,5.8c-1.4,3-2.7,6.1-2.2,9.5c0.2,1.9,0.8,2.5,2.7,2c0.9-0.2,1.7-0.5,2.6-0.8c2.6-1.2,5-2.7,7.4-4.5
	c1.4-1.1,1.9-1.6,2.7-2.4c1.2-1.2,2.2-2,3.5-3.2c1.7-1.5,3.3-2.9,5-4.4c0.2-0.1-0.1,0.6-0.2,0.9c-0.9,1.6-1.7,3.1-2.6,4.6
	c-0.6,1-1,2.1-1.6,3.1c-0.8,1.6-1.7,3.2-2.5,4.8c-0.2,0.4-0.1,1.1,0.1,1.5c0.2,0.2,0.9,0.1,1.4,0c0.6-0.2,1.2-0.6,1.8-1
	c1.5-0.8,2.9-1.7,4.4-2.4C146.6,69.9,148.3,69.2,150,68.5"/>
<path fill="#0F2B51" d="M112,67.3c-0.6,0.1,0.4-1.7,0.9-2.6l2-3.8c1.9-2.9,3.8-5.7,5.8-8.6c0.4-0.6,0.8-1.2,1.2-1.7
	c0.5-0.7,1-1.4,1.5-2.1l1.4-1.9c1-1.2,2-2.3,3-3.4l9.2-12.4c1.3-1.8,2.6-3.7,4-5.4c1.5-1.9,3-3.8,4.5-5.7c1.9-2.3,3.8-4.7,5.7-7
	c1.3-1.6,2.7-3.1,3.9-4.6c0.2-0.3,0.4-0.6,0.4-1c0.1-0.7-0.2-0.9-0.6-0.9c-0.6,0-1.2,0.1-1.8,0.2c-2,0.3-3.9,0.6-5.9,0.9
	c-2.3,0.4-4.6,0.8-6.9,1.2c-0.7,0.1-1,0.5-1,1.1c0,0.6,0.7,0.5,1.2,0.5c1,0,1.6-0.1,2.7-0.1c-0.4,0.5-0.6,0.9-0.9,1.2
	c-1.2,1.5-2.5,3-3.7,4.5c-1.7,2.2-3.4,4.4-5.1,6.6c-1.3,1.7-2.7,3.4-4.1,5.1c-1.3,1.7-2.6,3.4-3.9,5.1c-2,2.5-4,5.1-5.9,7.6
	c-2.5,3.2-4.9,6.5-7.3,9.8c-3.1,4.3-6.1,8.6-9,13c-1.6,2.4-3,4.8-4.5,7.3c-0.6,1-1.1,2-1.6,3c-0.1,0.3-0.2,1,0.1,1.2
	c0.2,0.1,0.7-0.1,1.1-0.2c1.7-0.6,3.3-1.2,5-1.8c2.3-0.8,4.6-1.6,6.8-2.4c1.5-0.6,4.5-1.1,4.6-1.7C114.8,66.7,114,66.7,112,67.3"/>
<path fill="#0F2B51" d="M186.5,54.8c1.5-1.4,1.8-2.6,0.9-4.4c-0.4-1-1.1-1.3-2.2-1c-0.5,0.2-1.1,0.4-1.6,0.5c-2.7,0.9-5.3,1.7-8,2.4
	c-1.4,0.4-4.2,1.1-4.4,1.1c-0.3,0,0.3-0.8,0.5-0.9c1.2-1.2,2.5-2.7,3.7-3.8c1.1-1,2-1.8,3-3c2.7-3.3,5.8-5.2,9.2-7.7
	c1.3-0.9,2.5-1.5,3.4-2.1c0.8-0.5,0.8-1.6-0.1-1.9c-0.9-0.3-1.9-0.4-2.9-0.6c-2.7-0.4-4.1-0.3-6.2,0c-0.5,0.1-1.1,0.3-1.5,0.7
	c-0.7,0.5-1.2,1.2-1.8,1.8c-1.6,1.7-3.3,3.4-4.9,5.1c-2.4,2.5-4.8,4.9-7.2,7.5c-1.3,1.4-2.3,2.9-3.5,4.3c-1,1.3-1.9,2.5-2.3,4.1
	c-0.3,1.4,0.5,2.8,1.8,2.7c2-0.2,3.2-0.6,5.2-1c1-0.2,4-1,3.9-0.8c0.3-0.1-0.5,1-2,2.2c-1.7,1.4-3.5,2.7-5.2,4
	c-1.7,1.3-3.4,2.7-5.2,4c-1.4,1.1-2.8,2.1-4.2,3.1c-2.3,1.7-4.5,3.3-6.8,4.9c-1,0.7-2.2,1.4-3,2.2c-0.4,0.5-1.3,2-1.4,4.1
	c0,1.1,0.3,2.2,1.3,3.1c0.9,0.7,1.2,0.6,2,0.2c1.1-0.4,2-1.2,3-1.9c2.3-1.5,4.5-2.9,6.7-4.4c1.5-1,2.9-2.3,4.4-3.3
	c3-2.2,6-4.6,8.7-7.2c1-0.9,2-1.8,3-2.7c1.8-1.6,3.6-3.3,5.4-4.7C181.2,59.3,183.9,57.2,186.5,54.8"/>
<path fill="#0F2B51" d="M136.1,2.1c-1.2-0.3-2.3,0-3.5,0.3c-2.5,0.7-5,1.5-7.5,2.4c-2,0.7-4,1.5-5.9,2.3c-1.7,0.7-3.4,1.6-5.1,2.4
	c-2.7,1.2-5.5,2.3-8.2,3.7c-3.1,1.5-6,3.3-9,4.9c-2.8,1.6-5.6,3.2-8.4,4.7c-2.3,1.3-4.8,2.4-7.1,3.7c-3.8,2.2-7.6,4.6-11.3,6.9
	c-0.9,0.6-1.8,1.3-2.9,1.5c-0.6,0-12.8,0.7-24,1.4c-0.3,0-0.6,0-0.9,0c-0.1,0-0.1,0-0.2,0c-7.9,0.5-15.1,0.9-17.3,1.2
	c-2.4,0.3-3.6,0.5-4.1,0.6c-2,0.2-3.2,1.7-4.7,2.8c-2.2,1.6-4.4,3.2-6.7,4.9c-2.3,1.7-4.7,3.5-7,5.3c-0.3,0.2-0.6,0.8-0.5,1
	c0.1,0.4,0.8,0.5,1.1,0.5c0.1,0,0.1,0,0.2,0l0,0l4.4-0.8l8.4-1.6l12.7-2.1c13.1-2.7,19.4-2.8,21.8-2.6c-0.3,0.2-0.7,0.5-1.1,0.7
	c-3.5,2.2-7,4.4-10.5,6.6c-1.8,1.1-3.6,2-5.3,3.1c-2.4,1.5-4.7,3-7,4.6c-2.6,1.8-5.2,3.6-7.8,5.4c-0.6,0.4-1.3,0.8-1.9,1.3
	c-1.5,1.1-3,2.2-4.4,3.4c-0.8,0.6-1.6,1.3-2.3,2.1c-0.3,0.3-0.7,0.7-0.8,1.2l0,0.3c0,0,0.1,0.4,1.2,0.2c0.4,0,0.8,0,1-0.1
	c4.2,0,13-0.1,14.3-0.8c1.1-0.6,3.7-2.4,5.4-3.7c1.2-0.7,2.2-1.5,3.3-2.3c2.5-2.1,5.4-3.4,8-5.3c3.8-2.8,7.7-5.3,11.6-7.8
	c5.2-3.4,10.4-6.8,15.6-10.2c1-0.7,2-1.3,3-1.8l15.6-1.3c0.5,0,1,0,1.4-0.1l0.3,0l0,0c1.2-0.3,2.3-0.9,3.4-1.9
	c1.7-1.7,3.4-3.4,5.1-5.1c0.2-0.2,0.4-0.7,0.4-0.9c0-0.1-0.5-0.2-0.9-0.1c-0.2,0-0.5,0-0.7,0.1l-12.4,1.5c0,0-0.1,0-0.1,0
	c1.6-1,3-1.8,4.5-2.6c2.9-1.7,5.8-3.3,8.6-5c1.6-1,3.1-2.1,4.7-3.1c3.8-2.2,7.6-4.3,11.4-6.5c1.7-0.9,5.2-2.7,5.2-2.6
	c0.2-0.1-7.8,9.3-10.3,12.3c-2,2.4-3.9,4.7-5.9,7.1c-1.5,1.8-3,3.6-4.5,5.5c-1.6,2-3.3,4.1-4.9,6.2c-1.5,1.9-3.1,3.8-4.6,5.7
	c-1.7,2.2-3.3,4.4-5,6.5c-1.6,2-3.3,4-4.9,6.1c-1.9,2.5-3.6,5-5.5,7.5c-0.5,0.7-1,1.5-1.5,2.2c-0.1,0.2-0.5,1-0.3,1.2
	c0.2,0.3,4.6-1.2,6.7-1.9c2.1-0.7,4.2-1.4,6.3-2.1c2.2-0.8,3.5-1.2,5.7-2.1c0.9-0.4,1.9-0.8,2.7-1.4c0.3-0.2,0.6-0.9,0.5-1.3
	c-0.1-0.7-0.7-0.8-1.3-0.7c-1.1,0.1-1.2,0.1-2.3,0.3c-1.2,0.3-0.2-1.4,0.3-2c1.4-1.8,2.7-3.8,4.1-5.6c1.5-2,3.1-3.9,4.6-5.8
	c1.1-1.4,2.1-2.9,3.2-4.2c1-1.3,2.2-2.6,3.2-3.9c1.3-1.7,2.6-3.5,3.9-5.1c1.2-1.5,2.5-2.9,3.7-4.4c1.9-2.3,3.7-4.6,5.6-6.8
	c2.1-2.6,4.3-5.2,6.5-7.8c1.2-1.5,5.8-8.5,6.9-10c0.1-0.1,0.2-0.2,0.2-0.4c0-0.1,0.1-0.1,0.1-0.2c0.5-0.6,0.9-1.1,1.3-1.7
	c1-1.4,1.9-2.9,2.9-4.3C137.2,2.6,136.9,2.3,136.1,2.1"/>
</svg>
