<?xml version="1.0" encoding="UTF-8" standalone="no"?>
<svg
   xmlns:dc="http://purl.org/dc/elements/1.1/"
   xmlns:cc="http://creativecommons.org/ns#"
   xmlns:rdf="http://www.w3.org/1999/02/22-rdf-syntax-ns#"
   xmlns:svg="http://www.w3.org/2000/svg"
   xmlns="http://www.w3.org/2000/svg"
   xmlns:sodipodi="http://sodipodi.sourceforge.net/DTD/sodipodi-0.dtd"
   xmlns:inkscape="http://www.inkscape.org/namespaces/inkscape"
   version="1.0"
   id="svg2505"
   inkscape:output_extension="org.inkscape.output.svg.inkscape"
   sodipodi:version="0.32"
   inkscape:version="0.47 r22583"
   sodipodi:docname="20130623142927!Asiana_Airlines.svg"
   x="0px"
   y="0px"
   width="300px"
   height="91px"
   viewBox="0 0 300 91"
   enable-background="new 0 0 300 91"
   xml:space="preserve"><metadata
   id="metadata12"><rdf:RDF><cc:Work
       rdf:about=""><dc:format>image/svg+xml</dc:format><dc:type
         rdf:resource="http://purl.org/dc/dcmitype/StillImage" /></cc:Work></rdf:RDF></metadata>
<defs
   id="defs3">
	
	
		<inkscape:perspective
   id="perspective2512"
   inkscape:vp_x="0 : 526.18109 : 1"
   sodipodi:type="inkscape:persp3d"
   inkscape:vp_z="744.09448 : 526.18109 : 1"
   inkscape:vp_y="0 : 1000 : 0"
   inkscape:persp3d-origin="372.04724 : 350.78739 : 1">
		</inkscape:perspective>
</defs>
<sodipodi:namedview
   id="base"
   inkscape:cy="75.880256"
   pagecolor="#ffffff"
   inkscape:cx="131.27462"
   inkscape:zoom="2.5644405"
   showguides="true"
   showgrid="false"
   bordercolor="#666666"
   objecttolerance="10.0"
   gridtolerance="10.0"
   guidetolerance="10.0"
   borderopacity="1.0"
   inkscape:pageopacity="0.0"
   inkscape:window-x="105"
   inkscape:guide-bbox="true"
   inkscape:current-layer="layer1"
   inkscape:window-y="150"
   inkscape:window-height="744"
   inkscape:window-width="1280"
   inkscape:pageshadow="2"
   inkscape:window-maximized="0">
	<sodipodi:guide
   id="guide2530"
   position="263.9952,109.96551"
   orientation="1,0" />
	<sodipodi:guide
   id="guide2532"
   position="316.24831,40.944603"
   orientation="0,1" />
</sodipodi:namedview>
<g
   id="layer1"
   inkscape:label="Logo"
   inkscape:groupmode="layer"
   style="opacity:1">
	<path
   id="path2516"
   d="m 280.10971,58.540087 c -1.30381,-1.025436 -2.01654,-2.297155 -2.01131,-3.586785 0.004,-1.099319 2.01355,-7.013856 4.46519,-13.144077 2.45015,-6.129475 4.37788,-11.21411 4.28235,-11.298443 -0.0956,-0.08433 -5.63392,2.009076 -12.30672,4.652519 -11.09992,4.396535 -12.30372,4.72342 -14.12548,3.835306 -1.09557,-0.533614 -2.30759,-1.928474 -2.69418,-3.100186 -1.3486,-4.086815 0.4739,-5.254795 19.06309,-12.217156 15.50167,-5.806321 17.1667,-6.28023 19.15338,-5.457793 3.9607,1.640399 4.19653,3.962926 1.2568,12.376121 -4.52489,12.948543 -10.01105,27.368817 -10.65064,27.991243 -1.56428,1.526956 -4.45623,1.503822 -6.43248,-0.05075 z"
   style="fill:#ff0000" />
	<path
   id="flowRoot2518"
   d="m 22.232529,76.47458 -4.731834,0 -1.882851,-5.62132 -8.6037132,0 -1.7745691,5.62132 -4.6246017,0 8.3892524,-24.747184 4.6067306,0 8.621586,24.747184 z m -8.011842,-9.790796 -2.957264,-9.182465 -2.9215206,9.182465 5.8787846,0 z m 9.213461,1.739285 4.248241,-0.473496 c 0.478335,3.161861 2.043697,4.744361 4.696088,4.744361 1.314107,0 2.347518,-0.325071 3.101291,-0.972076 0.753771,-0.647007 1.129079,-1.448709 1.129079,-2.405106 0,-0.563387 -0.13141,-1.041063 -0.394231,-1.435119 -0.262822,-0.394057 -0.66336,-0.717037 -1.201619,-0.971032 -0.538257,-0.252949 -1.839748,-0.677317 -3.907625,-1.275197 -1.852365,-0.528892 -3.208521,-1.102731 -4.068473,-1.72047 -0.861001,-0.618785 -1.544336,-1.431984 -2.053159,-2.439598 -0.50777,-1.006571 -0.76218,-2.090488 -0.76218,-3.249663 0,-1.349409 0.325897,-2.565027 0.976643,-3.645808 0.651798,-1.079738 1.550643,-1.896073 2.697596,-2.44796 1.146952,-0.55189 2.565136,-0.826788 4.250345,-0.826788 2.533596,0 4.511062,0.647005 5.93345,1.941016 1.422389,1.294012 2.175109,3.146184 2.258162,5.55338 l -4.355474,0.2195 C 35.790949,57.690509 35.378844,56.762333 34.74492,56.233439 34.110994,55.704546 33.210044,55.4401 32.037862,55.4401 c -1.171131,0 -2.073135,0.230999 -2.707059,0.69195 -0.632872,0.460953 -0.94931,1.034792 -0.94931,1.720471 0,0.675228 0.285949,1.24384 0.859951,1.705837 0.572951,0.460953 1.894414,0.967895 3.961242,1.519785 2.186671,0.595788 3.766751,1.222935 4.741293,1.882483 0.973489,0.657459 1.7178,1.507241 2.231878,2.548304 0.514079,1.041062 0.770592,2.304761 0.770592,3.791098 0,2.149021 -0.70226,3.955201 -2.105723,5.418542 -1.404518,1.463341 -3.600651,2.195012 -6.588403,2.195012 -5.280603,0 -8.221047,-2.830521 -8.818175,-8.490513 l 0,0 z m 21.044618,8.051511 0,-24.747184 4.3376,0 0,24.747184 -4.3376,0 z m 27.945251,0 -4.731832,0 -1.882852,-5.62132 -8.604766,0 -1.77457,5.62132 -4.6246,0 8.3882,-24.747184 4.606731,0 8.623689,24.747184 z m -8.012893,-9.790796 -2.957263,-9.182465 -2.921522,9.182465 5.878785,0 z m 10.360411,9.790796 0,-24.747184 4.230369,0 8.819229,16.526344 0,-16.526344 4.051652,0 0,24.747184 -4.374396,0 -8.675202,-16.137515 0,16.137515 -4.051652,0 z m 41.103135,0 -4.73183,0 -1.8818,-5.62132 -8.60477,0 -1.774563,5.62132 -4.624608,0 8.389241,-24.747184 4.60673,0 8.6216,24.747184 z m -8.01185,-9.790796 -2.95726,-9.182465 -2.92153,9.182465 5.87879,0 z m 38.12695,9.790796 -4.73184,0 -1.88285,-5.62132 -8.60371,0 -1.77456,5.62132 -4.62462,0 8.38926,-24.747184 4.60672,0 8.6216,24.747184 z m -8.0129,-9.790796 -2.95724,-9.182465 -2.92153,9.182465 5.87877,0 z m 10.18169,9.790796 0,-24.747184 4.33761,0 0,24.747184 -4.33761,0 z m 8.53225,0 0,-24.747184 9.15983,0 c 2.34227,0 4.01486,0.22159 5.01884,0.66582 1.00397,0.445272 1.82714,1.216661 2.47366,2.313123 0.64549,1.098551 0.96824,2.411377 0.96824,3.941612 0,1.935791 -0.49304,3.495296 -1.47811,4.67642 -0.9861,1.181125 -2.38747,1.924293 -4.20408,2.22846 0.93248,0.631326 1.70307,1.319097 2.31283,2.068536 0.60868,0.748394 1.43921,2.090487 2.49049,4.026278 l 2.61771,4.827979 -5.18074,0 -3.15597,-5.385094 c -1.13433,-1.946244 -1.90597,-3.163952 -2.31178,-3.654171 -0.40578,-0.49022 -0.83576,-0.826788 -1.29096,-1.012841 -0.45416,-0.186054 -1.1827,-0.27908 -2.18668,-0.27908 l -0.89675,0 0,10.331186 -4.33653,0 z m 4.3376,-14.281162 3.22639,0 c 1.9722,0 3.22639,-0.08153 3.76464,-0.244588 0.53825,-0.163058 0.97351,-0.492308 1.30781,-0.986709 0.3343,-0.496491 0.50249,-1.15395 0.50249,-1.975511 0,-0.788113 -0.16715,-1.420485 -0.50249,-1.899207 -0.3343,-0.477676 -0.78846,-0.806927 -1.36247,-0.98671 -0.40579,-0.123339 -1.58323,-0.186053 -3.53022,-0.186053 l -3.40615,0 0,6.278778 z m 17.49547,14.281162 0,-24.544409 4.3376,0 0,20.374932 10.82717,0 0,4.169477 -15.16477,0 z m 18.17671,0 0,-24.747184 4.3376,0 0,24.747184 -4.3376,0 z m 8.56797,0 0,-24.747184 4.22932,0 8.81924,16.526344 0,-16.526344 4.05164,0 0,24.747184 -4.37335,0 -8.6752,-16.137515 0,16.137515 -4.05165,0 z m 21.68906,0 0,-24.747184 15.98899,0 0,4.186199 -11.65033,0 0,5.486483 10.82718,0 0,4.16843 -10.82718,0 0,6.73555 12.04562,0 0,4.169476 -16.38428,0 z m 18.96518,-8.051511 4.24824,-0.473496 c 0.47728,3.161861 2.0437,4.744361 4.69714,4.744361 1.3141,0 2.34752,-0.325071 3.10023,-0.972076 0.75378,-0.647007 1.12909,-1.448709 1.12909,-2.405106 0,-0.563387 -0.13141,-1.041063 -0.39423,-1.435119 -0.26283,-0.394057 -0.66336,-0.717037 -1.20162,-0.971032 -0.53826,-0.252949 -1.83975,-0.677317 -3.90763,-1.275197 -1.85236,-0.528892 -3.20957,-1.102731 -4.06953,-1.72047 -0.85996,-0.617738 -1.54433,-1.431984 -2.05105,-2.439598 -0.50881,-1.006571 -0.76218,-2.090488 -0.76218,-3.249663 0,-1.349409 0.32485,-2.565027 0.97664,-3.645808 0.6518,-1.079738 1.55064,-1.896073 2.69655,-2.44796 1.148,-0.550845 2.56409,-0.826788 4.24824,-0.826788 2.53359,0 4.51212,0.647005 5.9345,1.941016 1.42239,1.294012 2.17407,3.146184 2.25817,5.55338 l -4.35654,0.2195 c -0.19132,-1.328504 -0.60238,-2.25668 -1.23737,-2.785574 -0.63286,-0.528893 -1.53591,-0.793339 -2.706,-0.793339 -1.17113,0 -2.07418,0.230999 -2.70601,0.69195 -0.63496,0.460953 -0.95035,1.034792 -0.95035,1.720471 0,0.675228 0.28701,1.24384 0.85995,1.705837 0.574,0.460953 1.89441,0.967895 3.96229,1.519785 2.18668,0.595788 3.76676,1.222935 4.74129,1.882483 0.97456,0.657459 1.7178,1.507241 2.23189,2.548304 0.51407,1.041062 0.77059,2.304761 0.77059,3.791098 0,2.149021 -0.70226,3.955201 -2.10677,5.418542 -1.40452,1.463341 -3.59961,2.195012 -6.58736,2.195012 -5.28165,0 -8.21998,-2.830521 -8.81817,-8.490513 l 0,0 z"
   style="fill:#666666" />
</g>
</svg>