<?xml version="1.0" encoding="UTF-8"?>
<!DOCTYPE svg PUBLIC "-//W3C//DTD SVG 1.1//EN" "http://www.w3.org/Graphics/SVG/1.1/DTD/svg11.dtd">
<!-- Creator: CorelDRAW X6 -->
<svg xmlns="http://www.w3.org/2000/svg" xml:space="preserve" width="290.576mm" height="79.6712mm" version="1.1" shape-rendering="geometricPrecision" text-rendering="geometricPrecision" image-rendering="optimizeQuality" fill-rule="evenodd" clip-rule="evenodd"
viewBox="0 0 29058 7967"
 xmlns:xlink="http://www.w3.org/1999/xlink">
 <g id="Capa_x0020_1">
  <metadata id="CorelCorpID_0Corel-Layer"/>
  <g id="_233532368">
   <path fill="#E3001E" d="M2548 2154l-881 0 -1668 4098 999 0 322 -864 1558 0 322 864 957 0 -1609 -4098zm-449 1168l-525 1397 1067 0 -542 -1397z"/>
   <polygon fill="#E3001E" points="3522,3213 4411,3213 5190,5185 5977,3221 6875,3221 5605,6244 4792,6244 "/>
   <polygon fill="#E3001E" points="7087,3221 7891,3221 7891,6244 7070,6252 "/>
   <path fill="#E3001E" d="M8695 3289l10 653c1183,-225 1779,-131 1710,322 -1338,-51 -2059,278 -2076,1041 0,991 1126,1405 2108,643l0 305 813 0 0 -2303c-355,-947 -1385,-913 -2565,-660zm1685 1634c-1084,-59 -1219,178 -1194,449 0,330 1228,559 1194,-449z"/>
   <path fill="#E3001E" d="M11726 3221l821 0 0 330c787,-669 2032,-440 2074,745l8 1947 -855 0 0 -1922c17,-660 -1016,-491 -1211,-161l0 2091 -813 0 -25 -3031z"/>
   <path fill="#E3001E" d="M17670 3306l8 796c-2176,-1271 -2624,2362 -42,1304l-8 753c-1278,373 -2659,110 -2633,-1532 8,-1050 974,-1812 2675,-1321z"/>
   <path fill="#E3001E" d="M18373 3306l0 652c1026,-186 1785,-199 1710,322 -1425,-60 -2070,314 -2066,1050 17,982 1075,1372 2083,627l0 296 804 0 0 -2261c0,-720 -1312,-1084 -2532,-686zm1639 1621c-1084,-59 -1219,178 -1194,449 0,330 1228,559 1194,-449z"/>
   <circle fill="#E3001E" cx="7472" cy="2400" r="474"/>
   <path fill="#E3001E" d="M22873 -1c1105,4221 3204,6735 6185,7887 -1075,229 -2285,-19 -3488,-796 -246,-163 -932,-615 -1338,-635 -847,-42 -914,-59 -931,-262l2862 0 -643 -711c-3929,-34 -4259,-3903 -2646,-5482z"/>
   <path fill="#E3001E" d="M27356 6244c51,30 169,51 161,0 -181,-574 -906,-757 -2008,-803l806 811 1041 -9z"/>
  </g>
 </g>
</svg>
