<?xml version="1.0" encoding="UTF-8" standalone="no"?>
<!-- Generator: Adobe Illustrator 14.0.0, SVG Export Plug-In . SVG Version: 6.00 Build 43363)  -->
<svg
   xmlns:dc="http://purl.org/dc/elements/1.1/"
   xmlns:cc="http://web.resource.org/cc/"
   xmlns:rdf="http://www.w3.org/1999/02/22-rdf-syntax-ns#"
   xmlns:svg="http://www.w3.org/2000/svg"
   xmlns="http://www.w3.org/2000/svg"
   xmlns:xlink="http://www.w3.org/1999/xlink"
   xmlns:sodipodi="http://sodipodi.sourceforge.net/DTD/sodipodi-0.dtd"
   xmlns:inkscape="http://www.inkscape.org/namespaces/inkscape"
   version="1.0"
   id="Layer_1"
   x="0px"
   y="0px"
   width="408"
   height="281"
   viewBox="0 0 595.276 841.89"
   enable-background="new 0 0 595.276 841.89"
   xml:space="preserve"
   sodipodi:version="0.32"
   inkscape:version="0.45.1">
<path
   clip-path="url(#SVGID_8_)"
   d="M 73.735,761.092 C 73.299,761.507 72.702,762.582 72.702,764.088 L 72.702,773.393 C 72.702,774.164 72.416,774.901 71.957,775.318 C 71.716,775.54 70.199,776.916 70.105,776.989 L 70.98,776.989 C 71.245,776.736 74.003,774.305 74.29,773.975 C 74.664,773.547 75.558,772.466 75.558,770.77 C 75.558,770.371 75.565,762.19 75.565,761.828 C 75.565,760.488 76.186,759.744 76.51,759.385 C 76.841,759.018 77.887,758.114 78.154,757.874 L 77.291,757.865 C 77.042,758.095 74.034,760.811 73.735,761.092"
   id="path69"
   style="fill:#bc9b6a"
   transform="matrix(15.167702,0,0,15.167702,-745.09245,-11494.882)" /><path
   clip-path="url(#SVGID_8_)"
   d="M 66.907,794.963 L 70.283,797.914 L 72.547,797.914 C 74.845,797.914 76.945,796.928 78.334,795.54 C 79.721,794.152 80.233,792.291 80.233,790.547 L 80.233,785.71 C 80.233,784.085 79.214,783.138 78.929,782.855 C 78.774,782.702 77.789,781.773 77.789,781.773 L 77.789,785.486 C 77.789,785.486 78.873,786.603 79.086,786.83 C 80.091,787.895 80.08,789.835 76.908,792.925 C 76.351,793.468 74.766,794.964 72.585,794.964 L 66.907,794.964 L 66.907,794.963 z "
   id="path71"
   style="fill:#bc9b6a"
   transform="matrix(15.167702,0,0,15.167702,-745.09245,-11494.882)" /><path
   clip-path="url(#SVGID_8_)"
   d="M 80.646,777.818 C 80.646,777.818 81.615,778.93 81.996,779.229 C 83.275,780.235 83.834,779.086 83.013,777.771 C 82.819,777.457 82.024,776.928 80.646,777.818 M 76.3,775.115 C 75.923,775.512 75.565,776.486 75.565,777.344 L 75.565,779.176 L 77.419,779.176 C 78.143,779.176 78.796,778.639 79.303,778.171 C 79.316,778.146 79.303,776.352 79.303,776.352 C 79.303,776.352 79.778,776.898 80.201,777.339 C 80.824,776.77 82.429,775.092 83.596,775.092 C 85.96,775.092 85.424,778.055 84.456,779.008 C 84.144,779.316 82.75,780.595 82.317,781.005 C 81.203,782.068 79.29,781.56 79.29,778.815 C 79.29,778.815 77.241,780.761 76.931,781.018 C 76.618,781.277 75.565,782.397 75.565,782.397 L 75.565,787.223 C 75.565,789.538 74.862,790.372 74.171,791.011 C 73.863,791.295 71.375,793.552 70.926,793.947 L 70.044,793.947 C 70.044,793.947 71.646,792.549 71.95,792.231 C 72.298,791.873 72.702,791.137 72.702,789.917 C 72.702,789.607 72.664,782.334 72.664,782.334 L 60.811,782.334 C 56.688,782.334 55.807,777.76 55.782,776.534 C 55.774,776.174 55.782,772.519 55.782,771.951 C 55.782,771.197 55.301,769.931 54.531,769.54 L 55.693,769.54 C 55.828,769.597 56.559,769.893 56.559,772.697 C 56.559,772.697 56.509,775.962 56.509,776.135 C 56.509,777.557 57.64,779.189 59.275,779.189 C 59.609,779.189 72.689,779.176 72.689,779.176 C 72.702,778.815 73.065,777.445 73.71,776.724 C 74.073,776.315 76.952,773.683 77.28,773.428 L 78.132,773.419 C 78.007,773.538 76.61,774.787 76.3,775.115"
   id="path73"
   style="fill:#bc9b6a"
   transform="matrix(15.167702,0,0,15.167702,-745.09245,-11494.882)" /><path
   clip-path="url(#SVGID_8_)"
   d="M 66.318,786.505 C 66.318,787.151 64.251,788.874 64.13,788.992 C 63.98,788.297 63.458,787.525 61.915,785.982 L 64.18,783.717 C 65.699,785.235 66.318,785.56 66.318,786.505"
   id="path75"
   style="fill:#bc9b6a"
   transform="matrix(15.167702,0,0,15.167702,-745.09245,-11494.882)" /><path
   clip-path="url(#SVGID_8_)"
   d="M 62.356,773.183 C 61.737,773.833 61.628,773.996 61.048,774.343 L 68.133,774.343 C 70.054,774.343 69.671,773.153 69.324,772.551 C 68.622,771.318 66.392,769.028 66.392,769.028 C 66.392,769.028 62.487,773.048 62.356,773.183 M 70.246,760.547 C 70.701,761.003 71.679,762.232 71.092,762.819 C 70.573,763.338 69.77,764.161 69.77,764.161 C 69.733,763.864 68.978,763.15 68.978,763.15 C 68.978,763.15 68.985,765.338 68.978,765.608 C 68.954,766.594 68.581,766.877 68.581,766.877 C 68.581,766.877 70.406,768.688 70.406,771.014 C 70.406,772.143 70.409,773.179 70.409,773.401 C 70.409,773.88 70.288,774.248 69.956,774.614 C 69.792,774.797 68.103,776.496 67.845,776.728 C 67.355,777.169 66.841,777.243 66.455,777.243 L 60.164,777.243 C 59.174,777.243 58.153,776.471 58.153,775.696 C 58.153,775.504 58.167,773.364 58.167,773.364 C 58.488,773.736 58.817,774.175 59.609,774.163 C 60.229,774.152 60.878,773.668 61.054,773.492 C 61.232,773.313 65.811,768.527 65.811,768.527 C 65.811,768.527 63.668,766.539 62.254,765.593 C 61.564,765.134 60.65,765.716 60.513,766.323 C 60.078,768.225 60.513,771.084 60.513,771.084 C 60.513,771.084 59.113,769.685 58.776,769.35 C 58.075,768.648 58.102,767.063 58.935,766.23 C 59.066,766.097 60.335,764.666 61.948,764.666 L 64.459,764.666 C 66.143,764.666 67.96,766.315 67.96,766.315 C 67.96,766.315 68.229,766.017 68.229,765.734 C 68.229,764.87 68.223,762.568 68.223,762.568 C 66.958,761.299 66.786,759.993 67.394,759.384 C 68.525,758.25 68.941,757.853 68.941,757.853 C 68.941,757.853 68.926,759.227 70.246,760.547"
   id="path77"
   style="fill:#bc9b6a"
   transform="matrix(15.167702,0,0,15.167702,-745.09245,-11494.882)" /><path
   clip-path="url(#SVGID_8_)"
   d="M 54.279,779.629 L 53.116,779.629 C 53.116,779.629 54.367,780.317 54.367,782.087 L 54.367,787.74 C 54.367,791.418 57.402,794.82 61.089,794.82 L 64.168,794.82 C 66.016,794.82 66.665,794.373 67.783,793.38 C 68.191,793.017 68.724,792.419 68.922,792.201 C 69.565,791.48 70.249,790.898 70.249,789.003 L 70.249,787.151 C 70.249,785.551 69.322,784.886 68.878,784.44 C 68.591,784.153 67.802,783.401 67.802,783.401 L 67.802,787.19 C 67.802,787.19 68.578,788.016 68.922,788.287 C 70.519,789.548 69.251,791.75 67.762,791.75 C 67.466,791.75 61.413,791.753 61,791.753 C 58.399,791.753 55.145,789.593 55.145,785.859 L 55.145,782.786 C 55.145,779.629 54.279,779.629 54.279,779.629"
   id="path79"
   style="fill:#bc9b6a"
   transform="matrix(15.167702,0,0,15.167702,-745.09245,-11494.882)" /><path
   clip-path="url(#SVGID_8_)"
   d="M 61.691,786.516 C 61.691,787.162 59.622,788.882 59.501,789.002 C 59.353,788.307 58.829,787.534 57.286,785.99 L 59.552,783.726 C 61.068,785.246 61.691,785.57 61.691,786.516"
   id="path81"
   style="fill:#bc9b6a"
   transform="matrix(15.167702,0,0,15.167702,-745.09245,-11494.882)" /><path
   clip-path="url(#SVGID_8_)"
   d="M 38.004,811.674 C 37.633,811.674 34.775,811.671 34.381,811.671 C 33.248,811.671 33.336,810.719 33.237,809.923 L 33.237,804.713 C 33.237,804.713 34.031,804.692 34.904,804.692 C 35.911,804.692 37.168,804.546 38.387,805.235 C 38.387,805.235 37.508,803.133 34.897,803.133 L 33.237,803.133 C 33.237,803.133 33.237,802.834 33.237,802.107 L 33.237,801.461 C 33.237,801.461 33.237,800.003 32.879,799.587 C 32.879,799.587 35.099,799.595 35.255,799.596 C 37.332,799.598 38.941,799.564 40.615,800.662 C 40.615,800.662 40.294,797.925 36.271,797.925 L 28.451,797.925 C 28.451,797.925 29.848,799.091 29.765,801.454 L 29.848,810.919 C 29.848,813.315 30.779,813.354 30.779,813.354 L 33.457,813.354 L 34.673,813.354 L 38.482,813.354 C 40.234,813.354 40.843,812.126 40.843,811.439 L 40.868,810.525 C 40.868,810.526 40.313,811.674 38.004,811.674"
   id="path83"
   style="fill:#bc9b6a"
   transform="matrix(15.167702,0,0,15.167702,-745.09245,-11494.882)" /><path
   clip-path="url(#SVGID_8_)"
   d="M 58.504,810.868 L 58.504,804.248 C 58.504,801.681 56.393,800.996 54.834,800.996 C 52.774,800.996 52.148,802.731 51.887,803.315 C 51.42,801.709 49.8,800.975 48.471,800.975 C 45.988,800.975 45.351,803.354 45.351,803.354 C 45.351,803.354 45.291,801.061 43.276,801.061 L 41.311,801.065 C 41.311,801.065 42.44,801.534 42.44,803.517 L 42.439,810.868 C 42.439,813.319 43.424,813.343 43.424,813.343 L 46.684,813.343 C 46.598,813.32 45.431,812.435 45.431,810.851 L 45.431,804.33 C 45.471,804.036 45.963,803.065 47.37,803.065 C 48.141,803.065 49.006,803.878 48.992,804.81 L 48.987,810.866 C 48.987,813.335 49.959,813.342 49.959,813.342 L 53.231,813.342 C 53.231,813.342 51.978,812.467 51.978,810.845 L 51.968,804.324 C 52.089,803.959 52.522,803.084 53.759,803.084 C 54.725,803.084 55.534,803.9 55.511,804.833 C 55.511,804.833 55.504,810.361 55.507,810.875 C 55.523,813.355 56.479,813.336 56.479,813.336 C 58.184,813.336 59.753,813.343 59.753,813.343 C 59.753,813.343 58.504,812.481 58.504,810.868"
   id="path85"
   style="fill:#bc9b6a"
   transform="matrix(15.167702,0,0,15.167702,-745.09245,-11494.882)" /><path
   clip-path="url(#SVGID_8_)"
   d="M 64.19,810.864 C 64.19,812.496 65.445,813.342 65.445,813.342 C 65.445,813.342 63.892,813.335 62.185,813.335 C 62.185,813.335 61.214,813.347 61.214,810.886 L 61.214,810.874 L 61.218,803.498 C 61.218,801.559 60.09,801.059 60.09,801.059 L 62.035,801.059 C 62.729,801.059 64.18,801.059 64.18,803.806 L 64.175,810.854 L 64.19,810.864 z "
   id="path87"
   style="fill:#bc9b6a"
   transform="matrix(15.167702,0,0,15.167702,-745.09245,-11494.882)" /><path
   clip-path="url(#SVGID_8_)"
   d="M 74.194,801.989 C 74.194,801.989 73.88,801.102 72.528,801.102 C 70.483,801.102 69.985,803.52 69.985,803.52 C 69.814,801.612 69.303,801.043 67.887,801.043 L 65.913,801.045 C 65.913,801.045 67.06,801.52 67.06,803.497 L 67.054,810.862 C 67.054,813.313 68.035,813.336 68.035,813.336 L 71.264,813.336 C 71.181,813.314 70.017,812.427 70.017,810.839 L 70.021,804.819 C 70.1,804.268 70.384,803.849 70.82,803.566 C 71.889,802.887 73.357,803.053 74.194,804.06 L 74.194,801.989 z "
   id="path89"
   style="fill:#bc9b6a"
   transform="matrix(15.167702,0,0,15.167702,-745.09245,-11494.882)" /><path
   clip-path="url(#SVGID_8_)"
   d="M 89.307,802.436 C 90.413,802.436 91.237,802.915 91.237,802.915 L 91.245,801.058 L 88.521,801.058 L 88.521,798.246 C 88.521,798.246 87.815,799.494 86.34,800.688 C 85.418,801.45 83.476,802.385 83.476,802.385 L 85.545,802.424 L 85.54,810.965 C 85.54,813.333 86.534,813.333 86.534,813.333 C 88.317,813.333 89.758,813.339 89.758,813.339 C 89.758,813.339 88.516,812.494 88.516,810.943 L 88.521,802.429 C 89.362,802.434 88.774,802.436 89.307,802.436"
   id="path91"
   style="fill:#bc9b6a"
   transform="matrix(15.167702,0,0,15.167702,-745.09245,-11494.882)" /><path
   clip-path="url(#SVGID_8_)"
   d="M 97.185,805.362 C 97.725,804.364 98.149,801.842 96.304,801.982 C 94.189,802.139 94.596,807.803 94.596,807.803 C 95.297,807.029 96.36,806.872 97.185,805.362 M 99.186,806.149 C 97.357,808.044 95.921,807.746 94.808,809.145 C 94.808,809.145 94.987,811.034 96.41,811.702 C 96.905,811.93 98.917,812.573 100.216,810.303 L 100.213,812.46 C 100.213,812.46 99.375,813.355 96.718,813.355 C 93.549,813.355 91.355,810.851 91.355,807.456 C 91.355,804.115 93.144,801.012 96.487,800.997 C 99.795,800.975 101.587,803.632 99.186,806.149"
   id="path93"
   style="fill:#bc9b6a"
   transform="matrix(15.167702,0,0,15.167702,-745.09245,-11494.882)" /><path
   clip-path="url(#SVGID_8_)"
   d="M 62.674,800.06 C 63.515,800.06 64.198,799.41 64.198,798.586 C 64.198,797.762 63.515,797.096 62.674,797.096 C 61.833,797.096 61.184,797.763 61.184,798.586 C 61.184,799.409 61.833,800.06 62.674,800.06"
   id="path95"
   style="fill:#bc9b6a"
   transform="matrix(15.167702,0,0,15.167702,-745.09245,-11494.882)" /><path
   clip-path="url(#SVGID_8_)"
   d="M 106.34,810 C 106.364,810.87 105.591,812.019 103.937,812.019 C 102.316,812.019 101.603,810.277 101.603,810.277 L 101.59,812.475 C 101.59,812.475 102.792,813.344 104.669,813.344 L 104.668,813.344 C 106.904,813.344 109.109,811.666 109.041,809.32 C 109.018,808.488 108.733,807.78 108.291,807.172 C 107.533,806.178 106.166,805.442 105.082,804.816 C 103.611,803.964 103.809,802.134 105.968,802.307 C 107.585,802.437 108.269,803.996 108.269,803.996 L 108.269,801.948 C 108.269,801.948 107.023,800.965 105.143,800.965 C 103.19,800.965 101.454,802.257 101.503,803.9 C 101.546,805.354 102.137,806.301 103.331,807.169 C 103.804,807.523 104.367,807.862 105.019,808.227 C 105.973,808.75 106.323,809.396 106.34,810"
   id="path97"
   style="fill:#bc9b6a"
   transform="matrix(15.167702,0,0,15.167702,-745.09245,-11494.882)" /><path
   clip-path="url(#SVGID_8_)"
   d="M 79.757,803.762 C 79.757,804.963 78.737,805.5 78.072,805.793 C 76.133,806.641 73.653,807.574 73.653,810.392 C 73.653,812.277 75.019,813.358 76.938,813.358 C 78.409,813.358 79.148,812.598 79.514,811.881 C 79.736,813.271 80.428,813.334 80.428,813.334 C 82.123,813.334 83.676,813.343 83.676,813.343 C 83.676,813.343 82.41,812.484 82.41,810.873 L 82.41,810.867 L 82.41,803.973 C 82.41,802.318 80.578,801.035 78.634,801.035 C 76.765,801.035 75.584,801.937 75.584,801.937 L 75.584,804.075 C 75.584,804.075 76.252,802.378 77.942,802.378 C 79.344,802.378 79.757,803.067 79.757,803.762 M 77.997,811.943 C 76.974,811.943 76.276,811.393 76.276,810.229 C 76.276,807.461 78.789,806.892 79.463,806.072 L 79.459,811.239 C 79.437,811.257 79.007,811.943 77.997,811.943"
   id="path99"
   style="fill:#bc9b6a"
   transform="matrix(15.167702,0,0,15.167702,-745.09245,-11494.882)" />
		
	
</svg>