<?xml version="1.0" encoding="UTF-8" standalone="no"?>
<!-- Generator: Adobe Illustrator 14.0.0, SVG Export Plug-In . SVG Version: 6.00 Build 43363)  -->
<svg
   xmlns:dc="http://purl.org/dc/elements/1.1/"
   xmlns:cc="http://creativecommons.org/ns#"
   xmlns:rdf="http://www.w3.org/1999/02/22-rdf-syntax-ns#"
   xmlns:svg="http://www.w3.org/2000/svg"
   xmlns="http://www.w3.org/2000/svg"
   xmlns:sodipodi="http://sodipodi.sourceforge.net/DTD/sodipodi-0.dtd"
   xmlns:inkscape="http://www.inkscape.org/namespaces/inkscape"
   version="1.0"
   id="Layer_1"
   x="0px"
   y="0px"
   width="200"
   height="92"
   viewBox="0 0 200 92"
   enable-background=""
   xml:space="preserve"
   sodipodi:version="0.32"
   inkscape:version="0.46"
   sodipodi:docname="LOT Poland Airlines.svg"
   inkscape:output_extension="org.inkscape.output.svg.inkscape"><metadata
   id="metadata2459"><rdf:RDF><cc:Work
       rdf:about=""><dc:format>image/svg+xml</dc:format><dc:type
         rdf:resource="http://purl.org/dc/dcmitype/StillImage" /></cc:Work></rdf:RDF></metadata><defs
   id="defs2457"><inkscape:perspective
     sodipodi:type="inkscape:persp3d"
     inkscape:vp_x="0 : 46 : 1"
     inkscape:vp_y="0 : 1000 : 0"
     inkscape:vp_z="200 : 46 : 1"
     inkscape:persp3d-origin="100 : 30.666667 : 1"
     id="perspective2461" /></defs><sodipodi:namedview
   inkscape:window-height="750"
   inkscape:window-width="1280"
   inkscape:pageshadow="2"
   inkscape:pageopacity="0"
   guidetolerance="10.0"
   gridtolerance="10.0"
   objecttolerance="10.0"
   borderopacity="1.0"
   bordercolor="#666666"
   pagecolor="#ffffff"
   id="base"
   showgrid="false"
   inkscape:zoom="2.72"
   inkscape:cx="100"
   inkscape:cy="46"
   inkscape:window-x="-8"
   inkscape:window-y="-8"
   inkscape:current-layer="Layer_1" />
<g
   id="g2444">
	<path
   clip-rule="evenodd"
   d="M 45.624,3.111 L 45.254,4.57 L 40.995,4.615 L 40.995,4.615 C 40.185,4.615 39.653,6.908 40.277,6.908 L 43.749,7.138 C 45.948,7.232 44.189,12.415 41.943,12.415 L 41.943,12.415 L 37.013,12.485 L 37.384,11.003 L 41.944,10.935 L 41.944,10.935 C 42.986,10.912 43.796,8.527 42.87,8.527 C 41.574,8.527 40.764,8.435 40.185,8.435 C 38.611,8.435 38.356,7.533 38.356,5.912 C 38.356,4.594 39.768,3.111 41.203,3.111 L 41.203,3.111 L 45.624,3.111 L 45.624,3.111 L 45.624,3.111 L 45.624,3.111 z M 8.22,9.476 L 7.526,12.439 L 5.767,12.439 L 7.758,3.134 L 11.785,3.134 L 11.785,3.134 C 12.433,3.134 14.262,3.529 14.516,4.476 C 14.955,6.005 14.006,8.296 13.289,8.759 C 12.85,9.036 12.109,9.476 10.836,9.476 L 10.836,9.476 L 8.22,9.476 L 8.22,9.476 L 8.22,9.476 L 8.22,9.476 z M 8.521,7.972 L 10.673,7.972 L 10.673,7.972 C 11.853,7.972 12.409,7.902 12.802,6.468 C 12.987,5.726 13.056,4.661 11.413,4.661 L 11.413,4.661 L 9.169,4.661 L 8.521,7.972 L 8.521,7.972 L 8.521,7.972 L 8.521,7.972 z M 20.557,4.546 C 19.099,4.546 18.15,5.425 17.964,6.489 L 17.964,6.489 L 17.478,8.921 L 17.478,8.921 C 17.247,10.148 17.362,10.956 19.098,10.956 C 20.649,10.956 21.412,10.61 21.783,9.151 L 21.783,9.151 L 22.408,6.721 L 22.408,6.721 C 22.663,4.939 22.27,4.546 20.557,4.546 L 20.557,4.546 L 20.557,4.546 L 20.557,4.546 L 20.557,4.546 z M 20.789,3.134 L 20.766,3.134 L 20.766,3.134 C 18.429,3.134 16.692,4.13 16.253,6.628 C 15.721,9.567 13.961,12.439 18.544,12.439 C 19.678,12.439 21.785,12.277 22.294,11.56 C 23.197,10.216 24.146,7.253 24.146,6.283 C 24.145,3.921 23.542,3.134 20.789,3.134 L 20.789,3.134 L 20.789,3.134 L 20.789,3.134 L 20.789,3.134 z M 26.875,3.134 L 28.658,3.134 L 27.037,10.956 L 31.296,10.956 L 30.972,12.438 L 24.908,12.438 L 26.875,3.134 L 26.875,3.134 L 26.875,3.134 L 26.875,3.134 z M 34.814,3.134 L 36.55,3.134 L 34.583,12.439 L 32.824,12.439 L 34.814,3.134 L 34.814,3.134 L 34.814,3.134 L 34.814,3.134 z M 48.401,3.134 L 50.206,3.134 L 49.373,6.952 L 53.678,6.952 L 54.465,3.134 L 56.224,3.134 L 54.28,12.439 L 52.521,12.439 L 53.308,8.459 L 49.096,8.459 L 48.24,12.439 L 46.48,12.439 L 48.401,3.134 L 48.401,3.134 L 48.401,3.134 L 48.401,3.134 z M 62.937,9.408 L 66.038,9.408 L 65.482,4.476 L 62.937,9.408 L 62.937,9.408 L 62.937,9.408 L 62.937,9.408 z M 64.441,3.134 L 67.01,3.134 L 68.191,12.439 L 66.385,12.439 L 66.177,10.75 L 62.219,10.75 L 61.27,12.439 L 59.418,12.439 L 64.441,3.134 L 64.441,3.134 L 64.441,3.134 L 64.441,3.134 z M 71.778,3.134 L 73.491,3.134 L 71.547,12.439 L 69.788,12.439 L 71.778,3.134 L 71.778,3.134 L 71.778,3.134 L 71.778,3.134 z M 80.087,4.662 L 77.587,4.662 L 76.916,7.926 L 79.485,7.926 L 79.485,7.926 C 80.619,7.926 81.337,7.395 81.429,6.328 C 81.523,5.24 81.43,4.662 80.087,4.662 L 80.087,4.662 L 80.087,4.662 L 80.087,4.662 L 80.087,4.662 z M 80.689,3.134 C 84.392,3.134 83.744,8.597 80.805,8.665 C 82.842,8.62 81.801,11.374 81.569,12.438 L 81.569,12.438 L 79.81,12.438 L 80.087,11.073 L 80.087,11.073 C 80.295,10.009 80.365,9.407 78.907,9.407 L 78.907,9.407 L 76.615,9.407 L 75.944,12.438 L 74.208,12.438 L 76.175,3.133 L 80.689,3.133 L 80.689,3.134 L 80.689,3.134 L 80.689,3.134 z M 85.99,3.134 L 84.023,12.439 L 90.087,12.439 L 90.388,10.957 L 86.129,10.957 L 87.749,3.135 L 85.99,3.135 L 85.99,3.134 L 85.99,3.134 L 85.99,3.134 z M 93.859,3.134 L 95.618,3.134 L 93.697,12.439 L 91.938,12.439 L 93.859,3.134 L 93.859,3.134 L 93.859,3.134 L 93.859,3.134 z M 98.257,3.134 L 101.15,3.134 L 103.464,10.956 L 103.534,10.956 L 104.991,3.134 L 106.751,3.134 L 104.806,12.439 L 101.867,12.439 L 99.646,4.662 L 99.576,4.662 L 98.072,12.439 L 96.336,12.439 L 98.257,3.134 L 98.257,3.134 L 98.257,3.134 L 98.257,3.134 z M 124.574,3.111 L 124.203,4.57 L 119.945,4.615 L 119.945,4.615 C 119.134,4.615 118.601,6.908 119.226,6.908 L 122.699,7.138 C 124.898,7.232 123.138,12.415 120.892,12.415 L 120.892,12.415 L 115.962,12.485 L 116.333,11.003 L 120.892,10.935 L 120.892,10.935 C 121.935,10.912 122.744,8.527 121.818,8.527 C 120.523,8.527 119.713,8.435 119.134,8.435 C 117.56,8.435 117.306,7.533 117.306,5.912 C 117.306,4.594 118.718,3.111 120.152,3.111 L 120.152,3.111 L 124.574,3.111 L 124.574,3.111 L 124.574,3.111 L 124.574,3.111 z M 107.377,12.439 L 109.297,3.134 L 115.57,3.134 L 115.314,4.661 L 110.709,4.661 L 110.246,7.022 L 114.551,7.022 L 114.274,8.502 L 109.993,8.502 L 109.436,10.955 L 113.997,10.955 L 113.696,12.437 L 107.377,12.437 L 107.377,12.439 L 107.377,12.439 z"
   id="path2446"
   style="fill:#485e88;fill-rule:evenodd" />
	<path
   clip-rule="evenodd"
   d="M 102.123,60.234 C 102.562,58.754 102.769,57.318 102.887,55.861 C 103.256,50.351 99.484,44.126 91.73,43.2 L 91.73,43.2 L 87.841,43.2 L 87.841,43.2 C 80.157,44.126 76.662,50.351 76.662,55.861 C 76.662,57.365 76.986,59.24 77.495,60.767 C 78.907,64.585 82.032,67.896 87.749,68.521 C 94.554,68.775 99.553,67.271 102.123,60.234 L 102.123,60.234 L 102.123,60.234 L 102.123,60.234 L 102.123,60.234 z M 91.383,22.878 L 192.854,22.878 L 187.553,43.2 L 166.907,43.2 L 154.665,88.888 L 131.888,88.888 L 144.134,43.2 L 122.7,43.2 L 122.7,43.2 C 125.061,47.343 126.333,51.671 126.032,55.861 C 125.014,70.951 116.589,88.261 90.805,88.841 L 90.805,88.841 L 90.805,88.841 L 89.486,88.841 L 89.486,88.841 L 89.486,88.841 L 89.486,88.841 L 89.486,88.841 L 89.486,88.841 L 89.486,88.841 L 89.486,88.841 L 89.44,88.888 L 89.44,88.888 C 89.44,88.888 89.44,88.888 89.44,88.841 L 89.44,88.841 L 28.82,88.841 L 28.82,88.888 L 6.044,88.888 L 23.728,22.9 L 46.503,22.9 L 34.282,68.521 L 55.183,68.521 L 55.183,68.521 C 53.609,64.402 52.869,60.05 52.869,55.861 C 52.869,40.491 64.604,22.9 89.439,22.9 C 90.087,22.9 90.712,22.9 91.36,22.947 L 91.36,22.947 L 91.383,22.878 L 91.383,22.878 L 91.383,22.878 z"
   id="path2448"
   style="fill:#485e88;fill-rule:evenodd" />
	<path
   clip-rule="evenodd"
   d="M 102.215,59.889 L 101.961,60.535 L 89.045,60.535 L 92.957,63.336 L 92.957,63.336 C 94.438,64.402 94.531,67.018 93.79,68.035 L 93.79,68.035 L 86.407,60.535 L 77.495,60.558 L 77.356,60.212 L 77.356,60.212 C 80.411,59.401 83.374,58.452 86.059,57.573 L 86.059,57.573 L 92.795,43.362 L 92.795,43.362 C 93.512,44.819 95.433,46.231 94.045,48.431 L 94.045,48.431 L 88.815,56.693 L 88.815,56.693 C 91.916,55.861 92.68,58.916 93.513,59.494 C 94.161,59.933 95.92,59.865 96.915,59.656 C 97.957,59.426 96.984,58.361 97.864,58.361 C 102.145,58.361 100.502,60.257 101.66,60.05 C 101.822,60.051 102.053,59.865 102.215,59.889 L 102.215,59.889 L 102.215,59.889 L 102.215,59.889 z"
   id="path2450"
   style="fill:#485e88;fill-rule:evenodd" />
	<rect
   x="89.485001"
   y="88.842003"
   clip-rule="evenodd"
   width="0"
   height="0"
   id="rect2452"
   style="fill:#485e88;fill-rule:evenodd" />
	<path
   clip-rule="evenodd"
   d="M 89.485,88.842 L 89.485,88.842 L 89.485,88.842 L 89.485,88.842 L 89.485,88.842 C 89.485,88.889 89.485,88.889 89.485,88.842 L 89.485,88.842 L 89.439,88.842 L 89.485,88.842 L 89.485,88.842 C 89.485,88.889 89.485,88.889 89.485,88.842 L 89.485,88.842 L 89.485,88.842 L 89.485,88.842 L 89.485,88.842 L 89.485,88.842 L 89.485,88.842 L 89.485,88.842 z"
   id="path2454"
   style="fill:#485e88;fill-rule:evenodd" />
</g>
</svg>