<?xml version="1.0" encoding="UTF-8" standalone="no"?>
<!-- Created with Inkscape (http://www.inkscape.org/) -->

<svg
   xmlns:dc="http://purl.org/dc/elements/1.1/"
   xmlns:cc="http://creativecommons.org/ns#"
   xmlns:rdf="http://www.w3.org/1999/02/22-rdf-syntax-ns#"
   xmlns:svg="http://www.w3.org/2000/svg"
   xmlns="http://www.w3.org/2000/svg"
   version="1.0"
   width="850.39404"
   height="145.45702"
   viewBox="0 0 850.39375 145.45701"
   id="svg2">
  <metadata
     id="metadata14">
    <rdf:RDF>
      <cc:Work
         rdf:about="">
        <dc:format>image/svg+xml</dc:format>
        <dc:type
           rdf:resource="http://purl.org/dc/dcmitype/StillImage" />
        <dc:title></dc:title>
      </cc:Work>
    </rdf:RDF>
  </metadata>
  <defs
     id="defs12" />
  <g
     transform="translate(-17.71712,-17.803)"
     id="g4"
     style="fill:#efae00">
    <path
       d="m 162.997,90.709 c 0,40.267 -32.462,72.551 -72.729,72.551 -40.09,0 -72.551,-32.284 -72.551,-72.374 0,-40.976 32.462,-73.083 73.793,-73.083 39.203,0 71.487,32.994 71.487,72.906 z m -137.83,0 c 0,36.01 29.091,64.924 65.101,64.924 35.832,0 65.101,-28.737 65.101,-64.746 0,-36.719 -28.737,-65.456 -65.633,-65.456 -35.3,0 -64.569,29.446 -64.569,65.278 z m 49.136,-3.016 -0.887,1.774 c -3.193,-0.71 -9.402,-3.016 -15.787,-5.854 l -0.887,1.597 2.661,1.419 c 9.224,4.789 12.417,5.854 17.561,5.854 10.821,0 18.98,-6.031 22.883,-16.852 6.563,-1.419 15.078,-1.951 25.366,-1.951 8.692,0 16.142,0.355 25.899,1.596 l -2.483,3.016 c -4.435,-0.532 -12.772,-1.064 -18.626,-1.064 -7.273,0 -11.53,0 -14.014,0.177 l -1.064,2.661 c 5.854,-0.355 7.982,-0.355 12.594,-0.355 7.982,0 14.191,0.355 19.335,0.71 l -2.483,3.37 c -9.224,-0.355 -13.304,-0.532 -20.222,-0.532 -3.725,0 -6.563,0.177 -10.998,0.355 l -1.242,2.661 c 3.903,-0.355 9.402,-0.532 14.901,-0.532 5.499,0 11.885,0.177 15.61,0.355 l -2.483,3.193 c -2.661,-0.177 -7.628,-0.177 -11.53,-0.177 -6.209,0 -14.191,0.355 -18.093,0.887 l -1.242,2.306 c 7.45,-0.71 12.062,-1.064 20.222,-1.064 3.193,0 5.144,0 8.869,0.355 l -2.838,3.37 c -4.967,-0.355 -6.563,-0.355 -8.515,-0.355 -13.659,0 -22.706,1.951 -31.752,7.095 8.337,8.337 21.996,14.014 34.413,14.014 1.064,0 1.596,0 4.257,-0.177 l -5.854,6.031 C 95.057,112.884 89.204,110.578 59.048,92.662 47.163,85.921 37.407,81.309 29.602,79.003 l 1.064,-3.725 c 1.774,0.355 5.854,1.419 9.579,2.838 l 1.774,-4.08 32.284,13.659"
       id="path6" />
    <path
       d="m 796.269,120.155 c 0,-10.466 6.741,-17.916 20.045,-21.641 2.129,-0.532 8.869,-2.129 20.399,-4.08 4.79,-1.064 6.741,-2.483 6.741,-6.031 0,-3.902 -4.08,-6.386 -10.111,-6.386 -7.273,0 -11.885,3.548 -11.885,9.579 h -20.754 c 0,-15.787 12.417,-25.189 33.171,-25.189 21.641,0 32.107,9.047 32.107,27.318 v 35.655 c 0,6.031 0,6.031 2.129,9.756 h -21.286 l -1.242,-5.854 c -8.337,6.741 -13.481,8.692 -22.528,8.692 -15.61,0 -26.785,-9.224 -26.785,-21.819 m 41.686,-12.595 c -2.483,0.355 -5.322,1.064 -8.337,1.774 -7.45,1.951 -10.998,4.967 -10.998,9.401 0,4.612 3.37,7.095 9.224,7.095 11.175,0 16.32,-4.967 16.32,-15.255 v -4.789 c -2.838,0.887 -3.902,0.887 -6.209,1.774 m -114.237,8.337 h 22.351 v 0.887 c 0,5.854 4.79,9.401 12.417,9.401 6.563,0 10.643,-2.483 10.643,-6.386 0,-4.08 -3.725,-6.563 -12.595,-7.982 l -7.273,-1.242 c -16.497,-2.838 -23.593,-8.869 -23.593,-19.867 0,-15.255 12.595,-24.302 33.349,-24.302 14.546,0 23.592,3.903 28.204,12.417 1.951,3.37 2.306,4.612 2.838,12.24 h -21.286 c -0.532,-6.563 -3.37,-9.047 -10.288,-9.047 -5.676,0 -9.224,2.129 -9.224,5.854 0,3.37 3.37,5.322 10.998,6.563 l 7.805,1.419 c 16.497,2.838 24.125,9.934 24.125,21.996 0,14.723 -12.417,24.125 -32.284,24.125 -23.415,0 -36.187,-9.224 -36.187,-26.076 m -149.715,4.257 c 0,-10.466 6.918,-17.916 20.222,-21.641 2.129,-0.532 8.869,-1.951 20.222,-4.08 4.967,-1.064 6.918,-2.483 6.918,-6.031 0,-3.902 -4.08,-6.386 -10.288,-6.386 -7.273,0 -11.708,3.37 -11.885,9.579 h -20.754 c 0,-15.787 12.417,-25.189 32.994,-25.189 21.641,0 32.462,9.047 32.462,27.318 v 35.655 c 0,6.031 0,6.031 1.774,9.756 H 624.56 l -1.242,-5.854 c -7.273,6.386 -13.481,8.692 -22.528,8.692 -15.433,0 -26.785,-9.224 -26.785,-21.819 m 41.863,-12.595 c -2.838,0.532 -5.322,1.242 -8.337,1.774 -7.45,1.951 -10.998,4.967 -10.998,9.401 0,4.612 3.548,7.095 9.224,7.095 10.821,0 16.142,-4.967 16.142,-15.255 v -4.789 c -3.016,0.887 -3.903,0.887 -6.031,1.774 M 332.936,129.91 c -3.016,-5.144 -3.548,-7.805 -3.548,-19.335 V 69.421 h 22.883 v 40.267 c 0,10.288 2.838,14.368 10.111,14.368 7.45,0 11.353,-4.789 11.353,-14.368 V 69.421 h 22.706 v 69.713 h -20.754 l -0.71,-6.918 c -5.676,6.031 -12.062,8.692 -20.045,8.692 -9.756,0 -17.916,-3.903 -21.996,-10.998 m 362.934,9.224 V 99.577 c 0,-10.288 -3.016,-14.546 -10.111,-14.546 -7.45,0 -11.175,4.789 -11.175,14.546 v 39.557 H 651.878 V 69.421 h 20.754 l 0.71,7.805 c 5.322,-6.918 11.708,-9.934 20.222,-9.934 9.756,0 17.561,4.257 21.641,11.53 3.016,5.322 3.37,8.337 3.37,19.867 v 40.444 h -22.706 m -149.715,0 V 99.576 c 0,-10.111 -3.193,-14.546 -10.111,-14.546 -7.45,0 -11.175,4.789 -11.175,14.546 v 39.557 H 501.985 V 42.102 h 22.883 v 35.123 c 4.08,-6.918 10.111,-9.934 18.803,-9.934 9.579,0 17.384,4.08 21.641,11.53 3.016,5.322 3.37,8.16 3.37,19.867 v 40.444 h -22.528 m -66.165,0 c -13.481,0 -19.69,-6.386 -19.69,-20.399 V 84.675 H 450.72 V 69.42 h 9.579 V 47.424 h 22.706 V 69.42 h 12.949 v 15.255 h -12.949 v 27.672 c 0.177,10.288 0.887,10.821 9.579,10.821 h 4.435 v 15.965 H 479.99 m -69.004,0 V 84.675 h -9.934 V 69.42 h 9.934 v -2.129 c 0,-18.448 6.918,-25.189 24.657,-25.189 h 12.417 v 15.433 h -3.725 c -8.515,0 -10.643,1.951 -10.643,9.756 v 2.129 h 13.481 v 15.255 h -13.481 v 54.458 h -22.706 m -151.134,0 V 42.102 h 24.125 v 77.873 h 40.976 v 19.158 h -65.101"
       id="path8" />
  </g>
</svg>
