<?xml version="1.0" encoding="UTF-8" standalone="no"?>
<!-- Created with Inkscape (http://www.inkscape.org/) -->
<svg
   xmlns:svg="http://www.w3.org/2000/svg"
   xmlns="http://www.w3.org/2000/svg"
   version="1.0"
   width="885.82672"
   height="178.58267"
   id="svg2367">
  <defs
     id="defs2369" />
  <g
     transform="translate(-44.373132,175.79259)"
     id="g6769">
    <path
       d="M 65.138716,-158.00261 C 63.461706,-158.00261 62.089626,-156.63046 62.089626,-154.95345 L 62.089626,-18.048924 C 62.089626,-16.371914 63.461706,-14.999904 65.138716,-14.999904 L 202.04325,-14.999904 C 203.72026,-14.999904 204.93991,-16.371914 204.93991,-18.048924 L 204.93991,-154.95345 C 204.93991,-156.63046 203.72026,-158.00261 202.04325,-158.00261 L 65.138716,-158.00261"
       style="fill:#163a90;fill-rule:nonzero;stroke:none"
       id="path5553" />
    <path
       d="M 152.1905,-91.684704 C 147.31194,-91.684704 141.21373,-91.684704 140.29901,-91.684704 L 138.92693,-91.074914 L 105.8442,-49.912034 L 105.99663,-49.149814 C 106.75892,-49.149814 108.89329,-49.149814 109.96048,-49.149814 L 110.8752,-49.454704 L 119.7176,-60.888814 L 120.17496,-61.041244 L 131.1517,-61.041244 L 131.45664,-60.888814 L 129.1698,-49.607134 L 129.77963,-49.149814 C 131.30417,-49.149814 142.43338,-49.149814 143.95792,-49.149814 L 144.56775,-49.454704 C 144.56775,-49.454704 146.24476,-57.992114 152.64786,-91.074914 L 152.1905,-91.684704 z M 122.91916,-64.852614 L 134.81062,-80.403024 L 135.11555,-80.555454 L 135.11555,-80.403024 L 132.21889,-64.852614 L 131.91399,-64.700184 L 123.07159,-64.700184 L 122.91916,-64.852614"
       style="fill:#fcffff;fill-rule:nonzero;stroke:none"
       id="path5555" />
    <path
       d="M 74.895846,-54.790634 C 74.743376,-54.180734 75.048306,-53.418514 75.963026,-52.656264 C 77.640036,-51.284144 82.671026,-48.387454 90.598686,-48.387454 C 104.92945,-48.387454 110.26537,-57.687224 108.43593,-65.462404 C 107.97857,-67.596774 105.08191,-79.030874 104.77702,-80.555454 C 103.55737,-85.129164 105.8442,-88.330644 109.96048,-88.330644 C 113.61939,-88.330644 116.05865,-86.958634 118.19306,-85.586524 L 118.95531,-86.043844 L 119.41267,-88.788114 C 119.41267,-88.788114 119.7176,-89.550334 118.80285,-90.007654 C 117.58323,-90.770014 114.22921,-92.599454 107.21628,-92.599454 C 94.410066,-92.599454 88.769246,-84.214374 91.056046,-75.371964 C 91.818336,-72.475374 94.714996,-61.346134 94.714996,-59.364234 C 94.714996,-58.449544 95.172356,-52.808724 88.464316,-52.656264 C 82.518566,-52.656264 78.097396,-56.925004 76.725286,-58.297004 L 75.810566,-57.992114 L 74.895846,-54.790634"
       style="fill:#fcffff;fill-rule:nonzero;stroke:none"
       id="path5557" />
    <path
       d="M 148.22666,-54.485634 C 148.07419,-54.028304 148.37913,-53.266054 149.29384,-52.503724 C 150.97085,-51.131714 155.54449,-48.387454 163.62461,-48.387454 C 177.95537,-48.387454 183.29129,-57.687224 181.46185,-65.462404 C 181.00449,-67.596774 178.10783,-79.030874 177.65047,-80.555454 C 176.58329,-85.129164 178.71766,-88.330644 182.9864,-88.330644 C 186.64531,-88.330644 189.08461,-86.958634 191.21898,-85.586524 L 191.98123,-86.043844 L 192.43859,-88.788114 C 192.43859,-88.788114 192.74352,-89.550334 191.82877,-90.007654 C 190.45669,-90.770014 187.25513,-92.599454 180.2422,-92.599454 C 167.28352,-92.599454 161.79517,-84.214374 164.08197,-75.371964 C 164.84426,-72.475374 167.74091,-61.346134 167.74091,-59.364234 C 167.74091,-58.449544 168.19827,-52.808724 161.49024,-52.656264 C 155.54449,-52.656264 151.12332,-56.925004 149.7512,-58.297004 L 148.83648,-57.992114 L 148.22666,-54.485634"
       style="fill:#fcffff;fill-rule:nonzero;stroke:none"
       id="path5559" />
    <path
       d="M 756.67436,-82.080034 L 756.67436,-91.684704 L 749.66146,-91.684704 L 749.66146,-49.149814 L 756.67436,-49.149814 L 756.67436,-69.273784 C 756.67436,-75.067074 758.19886,-84.671734 768.41336,-84.671734 L 770.39536,-84.671734 L 770.39536,-92.751924 L 770.24286,-92.751924 C 763.83976,-92.751924 759.11366,-87.415964 756.67436,-82.080034"
       style="fill:#000407;fill-rule:nonzero;stroke:none"
       id="path5561" />
    <path
       d="M 829.24296,-92.751924 C 820.70546,-92.751924 816.43666,-86.501204 813.99746,-81.622674 L 813.99746,-91.684704 L 807.28946,-91.684704 L 807.28946,-49.149814 L 814.14986,-49.149814 L 814.14986,-67.444314 C 814.14986,-75.524504 818.11376,-86.958634 826.95616,-86.958634 C 832.59696,-86.958634 832.59696,-81.317784 832.59696,-76.591654 L 832.59696,-49.149814 L 839.60986,-49.149814 L 839.60986,-81.470254 C 839.60986,-84.214374 838.84756,-86.958634 837.17056,-88.940544 C 835.34116,-91.379804 832.59696,-92.751924 829.24296,-92.751924"
       style="fill:#000407;fill-rule:nonzero;stroke:none"
       id="path5563" />
    <path
       d="M 864.00266,-92.904354 C 857.90446,-92.904354 853.48326,-90.770014 850.58666,-86.806104 C 847.84246,-83.299724 846.62286,-78.116234 846.62286,-71.713154 C 846.62286,-56.620104 854.24556,-48.082554 867.66156,-48.082554 C 872.38766,-48.082554 874.52206,-48.692344 877.72356,-49.454704 L 878.18096,-49.759564 L 878.48586,-49.759564 L 878.48586,-54.028304 L 878.18096,-53.875844 L 876.96136,-53.570944 C 875.13186,-53.113624 873.45486,-52.656264 870.40576,-52.656264 C 856.37986,-52.656264 854.39796,-64.090404 854.39796,-75.371964 L 879.24816,-75.371964 L 879.24816,-75.524504 C 879.24816,-77.353974 879.24816,-81.622674 877.26626,-85.434054 C 874.97946,-90.312554 870.40576,-92.904354 864.00266,-92.904354 z M 854.55046,-79.640774 C 854.70286,-82.384934 856.37986,-88.940544 863.39286,-88.940544 C 870.40576,-88.940544 871.93036,-83.909514 871.93036,-79.640774 L 854.55046,-79.640774"
       style="fill:#000407;fill-rule:nonzero;stroke:none"
       id="path5565" />
    <path
       d="M 905.16546,-72.322944 C 903.18356,-73.390064 901.35416,-74.457284 899.67716,-75.219534 C 895.10346,-77.658874 891.74946,-79.488344 891.74946,-83.147264 C 891.74946,-86.653634 895.56086,-88.025754 898.91486,-88.025754 C 903.48846,-88.025754 907.75726,-85.586524 909.28176,-84.671734 L 909.43426,-84.671734 L 909.73916,-84.519264 L 909.73916,-90.617444 L 909.58666,-90.617444 L 907.75726,-91.227344 C 905.92776,-91.837134 902.87866,-92.904354 899.67716,-92.904354 C 890.22496,-92.904354 885.04146,-88.635544 885.04146,-81.012814 C 885.04146,-74.762174 889.76756,-72.170484 894.34116,-69.578684 L 896.62806,-68.359104 L 898.45746,-67.139414 C 902.57376,-64.852614 905.62286,-63.175604 905.62286,-59.516694 C 905.62286,-55.400424 902.26886,-52.808724 896.93296,-52.808724 C 894.49366,-52.808724 890.52986,-53.570944 885.19386,-56.772534 L 885.04146,-56.925004 L 884.73656,-57.077434 L 884.73656,-50.826824 L 884.88896,-50.674254 L 885.80376,-50.369354 C 887.78566,-49.454704 891.44456,-48.082554 896.47556,-48.082554 C 908.36706,-48.082554 912.48336,-54.638204 912.48336,-60.888814 C 912.48336,-67.139414 908.97686,-70.036114 905.16546,-72.322944"
       style="fill:#000407;fill-rule:nonzero;stroke:none"
       id="path5567" />
    <path
       d="M 734.11106,-91.684704 L 733.95856,-91.684704 L 733.95856,-49.149814 L 740.81906,-49.149814 L 740.81906,-91.684704 L 734.11106,-91.684704"
       style="fill:#000407;fill-rule:nonzero;stroke:none"
       id="path5569" />
    <path
       d="M 740.66656,-100.98446 L 740.81906,-100.98446 L 740.81906,-109.06455 L 733.80616,-109.06455 L 733.80616,-100.98446 L 740.66656,-100.98446"
       style="fill:#000407;fill-rule:nonzero;stroke:none"
       id="path5571" />
    <path
       d="M 775.88366,-109.21698 L 775.73126,-109.21698 L 775.73126,-49.149814 L 782.74416,-49.149814 L 782.74416,-109.21698 L 775.88366,-109.21698"
       style="fill:#000407;fill-rule:nonzero;stroke:none"
       id="path5573" />
    <path
       d="M 791.58656,-91.684704 L 791.43406,-91.684704 L 791.43406,-49.149814 L 798.44706,-49.149814 L 798.44706,-91.684704 L 791.58656,-91.684704"
       style="fill:#000407;fill-rule:nonzero;stroke:none"
       id="path5575" />
    <path
       d="M 798.14216,-100.98446 L 798.44706,-100.98446 L 798.44706,-109.06455 L 791.43406,-109.06455 L 791.43406,-100.98446 L 798.14216,-100.98446"
       style="fill:#000407;fill-rule:nonzero;stroke:none"
       id="path5577" />
    <path
       d="M 708.04126,-109.06455 L 699.65626,-109.06455 L 699.65626,-108.91208 L 679.53217,-49.149814 L 686.54506,-49.149814 L 692.18596,-66.834524 L 714.59676,-66.834524 L 720.23766,-49.149814 L 728.31776,-49.149814 L 708.04126,-108.91208 L 708.04126,-109.06455 z M 693.86296,-72.170484 L 703.31516,-101.59422 L 712.76736,-72.170484 L 693.86296,-72.170484"
       style="fill:#000407;fill-rule:nonzero;stroke:none"
       id="path5579" />
    <path
       d="M 442.9221,-100.98446 L 443.07453,-100.98446 L 443.07453,-109.06455 L 436.06163,-109.06455 L 436.06163,-100.98446 L 442.9221,-100.98446"
       style="fill:#000407;fill-rule:nonzero;stroke:none"
       id="path5581" />
    <path
       d="M 572.8137,-100.98446 L 572.96617,-100.98446 L 572.96617,-109.06455 L 565.95324,-109.06455 L 565.95324,-100.98446 L 572.8137,-100.98446"
       style="fill:#000407;fill-rule:nonzero;stroke:none"
       id="path5583" />
    <path
       d="M 253.11569,-48.082554 C 266.07434,-48.082554 274.00199,-54.333204 274.00199,-64.852614 C 274.00199,-72.475374 271.10537,-75.219534 264.39733,-79.793244 C 262.26296,-81.165354 259.82369,-82.384934 257.68932,-83.452154 C 251.59111,-86.501204 245.79783,-89.397904 245.79783,-95.496044 C 245.79783,-100.5271 249.91414,-103.88105 255.85985,-103.88105 C 262.56789,-103.88105 268.66607,-101.13689 269.88572,-100.67957 L 270.19065,-100.5271 L 270.19065,-106.93018 L 270.03818,-106.93018 C 267.29399,-107.6924 261.65317,-109.06455 257.23196,-109.06455 C 251.74358,-109.06455 246.86501,-107.6924 243.66346,-105.1007 C 240.30947,-102.50901 238.63246,-98.697634 238.63246,-93.971504 C 238.63246,-85.738954 243.81592,-81.775144 248.38956,-79.335884 C 249.91414,-78.421084 251.43868,-77.658874 252.81076,-77.048974 C 259.82369,-73.390064 265.92191,-70.341004 265.92191,-63.632964 C 265.92191,-57.229894 261.65317,-53.570944 254.18288,-53.570944 C 248.84695,-53.570944 243.2061,-55.705314 239.39472,-57.534794 L 239.24229,-57.534794 L 239.24229,-50.521824 L 239.39472,-50.521824 L 239.54718,-50.369354 C 241.68155,-49.759564 246.25519,-48.082554 253.11569,-48.082554"
       style="fill:#000407;fill-rule:nonzero;stroke:none"
       id="path5585" />
    <path
       d="M 331.93489,-92.751924 C 322.17777,-92.751924 316.99431,-88.635544 316.23202,-80.555454 L 316.23202,-80.250564 L 324.31213,-80.250564 L 324.31213,-80.555454 C 324.61703,-83.757044 325.07442,-88.788114 331.62996,-88.788114 C 338.03307,-88.788114 338.94783,-83.299724 338.94783,-77.963764 L 338.94783,-73.390064 C 332.23979,-72.932704 315.16483,-71.865584 315.16483,-58.906904 C 315.16483,-56.010214 316.23202,-53.418514 318.36639,-51.284144 C 320.50076,-49.149814 323.54988,-48.082554 326.7514,-48.082554 C 333.9168,-48.082554 337.72818,-52.961154 338.94783,-54.790634 L 338.94783,-48.997354 L 345.80829,-48.997354 L 345.80829,-78.421084 C 345.80829,-84.519264 344.43618,-92.751924 331.93489,-92.751924 z M 338.94783,-64.242834 C 338.94783,-57.992114 334.52662,-52.961154 329.03823,-52.961154 C 325.07442,-52.961154 322.48266,-55.705314 322.48266,-59.821594 C 322.48266,-65.309974 327.97105,-68.511564 338.6429,-69.121354 L 338.94783,-69.121354 L 338.94783,-64.242834"
       style="fill:#000407;fill-rule:nonzero;stroke:none"
       id="path5587" />
    <path
       d="M 379.19591,-76.591654 L 379.19591,-48.997354 L 386.20885,-48.997354 L 386.20885,-81.470254 C 386.20885,-84.061944 385.29413,-86.806104 383.76958,-88.788114 C 381.94011,-91.379804 379.19591,-92.751924 375.84189,-92.751924 C 367.30442,-92.751924 363.18814,-86.348744 360.59641,-81.622674 L 360.59641,-91.684704 L 353.88841,-91.684704 L 353.88841,-48.997354 L 360.90131,-48.997354 L 360.90131,-67.444314 C 360.90131,-75.524504 364.71269,-86.806104 373.5551,-86.806104 C 379.19591,-86.806104 379.19591,-81.165354 379.19591,-76.591654"
       style="fill:#000407;fill-rule:nonzero;stroke:none"
       id="path5589" />
    <path
       d="M 407.85744,-48.082554 C 415.02283,-48.082554 418.98668,-53.266054 420.20629,-56.772534 L 420.20629,-48.997354 L 427.37169,-48.997354 L 427.37169,-109.06455 L 420.20629,-109.06455 L 420.20629,-84.519264 C 419.29157,-87.111064 416.54738,-92.751924 408.61973,-92.751924 C 403.43627,-92.751924 399.47242,-90.465014 396.72823,-86.043844 C 394.28896,-82.232464 392.91685,-76.591654 392.91685,-70.341004 C 392.91685,-63.785394 393.98403,-58.602014 395.96597,-54.943094 C 398.40524,-50.369354 402.36908,-48.082554 407.85744,-48.082554 z M 409.83938,-88.025754 C 417.61456,-88.025754 420.20629,-76.439184 420.20629,-71.103264 C 420.20629,-60.431484 415.78512,-52.961154 409.38198,-52.961154 C 402.36908,-52.961154 400.8445,-62.108384 400.8445,-69.883684 C 400.8445,-75.219534 401.75926,-88.025754 409.83938,-88.025754"
       style="fill:#000407;fill-rule:nonzero;stroke:none"
       id="path5591" />
    <path
       d="M 473.87046,-92.751924 C 465.33298,-92.751924 461.06424,-86.348744 458.77741,-81.622674 L 458.77741,-91.684704 L 451.91694,-91.684704 L 451.91694,-48.997354 L 458.92987,-48.997354 L 458.92987,-67.444314 C 458.92987,-75.524504 462.89368,-86.806104 471.58362,-86.806104 C 477.22444,-86.806104 477.22444,-81.165354 477.22444,-76.591654 L 477.22444,-48.997354 L 484.23737,-48.997354 L 484.23737,-81.470254 C 484.23737,-84.061944 483.32265,-86.806104 481.79811,-88.788114 C 479.96863,-91.379804 477.22444,-92.751924 473.87046,-92.751924"
       style="fill:#000407;fill-rule:nonzero;stroke:none"
       id="path5593" />
    <path
       d="M 555.12892,-91.684704 L 555.12892,-91.684704 L 554.97649,-91.532234 L 543.69482,-58.754444 L 531.04107,-91.532234 L 531.04107,-91.684704 L 523.41831,-91.684704 L 523.41831,-91.379804 L 540.18834,-49.149814 L 540.18834,-48.997354 L 546.59145,-48.997354 L 546.59145,-49.149814 L 561.6845,-91.379804 L 561.83696,-91.684704 L 555.12892,-91.684704"
       style="fill:#000407;fill-rule:nonzero;stroke:none"
       id="path5595" />
    <path
       d="M 648.27892,-88.788114 C 646.29698,-91.379804 643.55279,-92.751924 640.1988,-92.751924 C 631.66133,-92.751924 627.54505,-86.348744 625.10575,-81.622674 L 625.10575,-91.684704 L 618.24529,-91.684704 L 618.24529,-48.997354 L 625.25822,-48.997354 L 625.25822,-67.444314 C 625.25822,-75.524504 629.22203,-86.806104 637.91197,-86.806104 C 643.55279,-86.806104 643.55279,-81.165354 643.55279,-76.591654 L 643.55279,-48.997354 L 650.56572,-48.997354 L 650.56572,-81.470254 C 650.56572,-84.061944 649.651,-86.806104 648.27892,-88.788114"
       style="fill:#000407;fill-rule:nonzero;stroke:none"
       id="path5597" />
    <path
       d="M 308.76172,-53.570944 C 306.93228,-53.113624 305.56017,-52.808724 302.66355,-52.808724 C 288.79015,-52.808724 286.8082,-65.614874 286.8082,-73.390064 C 286.8082,-77.963764 287.72296,-88.788114 295.95551,-88.788114 C 300.52918,-88.788114 302.81598,-86.043844 302.96844,-80.555454 L 303.12091,-80.250564 L 311.04856,-80.250564 L 311.04856,-80.555454 C 310.5912,-84.061944 309.37155,-87.111064 307.08471,-89.093004 C 304.49299,-91.379804 300.98654,-92.751924 296.41287,-92.751924 C 285.28366,-92.751924 279.03302,-85.129164 279.03302,-71.713154 C 279.03302,-64.547724 280.55756,-58.754444 283.60665,-54.943094 C 287.2656,-50.369354 292.75395,-48.082554 300.22425,-48.082554 C 304.18809,-48.082554 306.93228,-48.692344 309.82891,-49.607134 L 309.98137,-49.607134 L 309.98137,-53.875844 L 309.82891,-53.875844 L 308.76172,-53.570944"
       style="fill:#000407;fill-rule:nonzero;stroke:none"
       id="path5599" />
    <path
       d="M 506.95318,-92.751924 C 497.34848,-92.751924 492.16503,-88.635544 491.40277,-80.555454 L 491.40277,-80.250564 L 499.48289,-80.250564 L 499.48289,-80.555454 C 499.78778,-83.909514 500.24514,-88.788114 506.80072,-88.788114 C 513.20383,-88.788114 514.11855,-83.299724 514.11855,-77.963764 L 514.11855,-73.390064 C 507.41054,-72.932704 490.33559,-71.865584 490.33559,-58.906904 C 490.33559,-56.010214 491.40277,-53.418514 493.53714,-51.284144 C 495.67151,-49.149814 498.7206,-48.082554 501.92215,-48.082554 C 509.08755,-48.082554 512.8989,-52.961154 514.11855,-54.790634 L 514.11855,-49.149814 L 520.97901,-49.149814 L 520.97901,-78.421084 C 520.97901,-84.519264 519.60693,-92.751924 506.95318,-92.751924 z M 514.11855,-64.242834 C 514.11855,-57.992114 509.69734,-52.961154 504.20899,-52.961154 C 500.39761,-52.961154 497.80588,-55.705314 497.80588,-59.821594 C 497.80588,-65.309974 503.1418,-68.511564 513.81365,-69.121354 L 514.11855,-69.121354 L 514.11855,-64.242834"
       style="fill:#000407;fill-rule:nonzero;stroke:none"
       id="path5601" />
    <path
       d="M 596.29177,-92.751924 C 586.6871,-92.751924 581.35118,-88.635544 580.74136,-80.555454 L 580.74136,-80.250564 L 588.82147,-80.250564 L 588.82147,-80.555454 C 588.97394,-83.909514 589.4313,-88.788114 595.98687,-88.788114 C 602.54241,-88.788114 603.3047,-83.299724 603.3047,-77.963764 L 603.3047,-73.390064 C 596.5967,-72.932704 579.52174,-71.865584 579.52174,-58.906904 C 579.52174,-56.010214 580.74136,-53.418514 582.87573,-51.284144 C 585.01009,-49.149814 587.90675,-48.082554 591.26077,-48.082554 C 598.27367,-48.082554 602.08505,-52.961154 603.3047,-54.790634 L 603.3047,-49.149814 L 610.31763,-49.149814 L 610.31763,-78.421084 C 610.31763,-84.519264 608.94552,-92.751924 596.29177,-92.751924 z M 603.3047,-64.242834 C 603.3047,-57.992114 598.8835,-52.961154 593.54757,-52.961154 C 589.58376,-52.961154 586.992,-55.705314 586.992,-59.821594 C 586.992,-65.309974 592.48039,-68.511564 602.99977,-69.121354 L 603.3047,-69.121354 L 603.3047,-64.242834"
       style="fill:#000407;fill-rule:nonzero;stroke:none"
       id="path5603" />
    <path
       d="M 436.36653,-91.684704 L 436.21406,-91.684704 L 436.21406,-48.997354 L 443.07453,-48.997354 L 443.07453,-91.684704 L 436.36653,-91.684704"
       style="fill:#000407;fill-rule:nonzero;stroke:none"
       id="path5605" />
    <path
       d="M 566.25813,-91.684704 L 565.95324,-91.684704 L 565.95324,-48.997354 L 572.96617,-48.997354 L 572.96617,-91.684704 L 566.25813,-91.684704"
       style="fill:#000407;fill-rule:nonzero;stroke:none"
       id="path5607" />
  </g>
</svg>
