<?xml version="1.0" encoding="utf-8"?>
<!-- Generator: Adobe Illustrator 17.1.0, SVG Export Plug-In . SVG Version: 6.00 Build 0)  -->
<!DOCTYPE svg PUBLIC "-//W3C//DTD SVG 1.1//EN" "http://www.w3.org/Graphics/SVG/1.1/DTD/svg11.dtd" [
	<!ENTITY ns_extend "http://ns.adobe.com/Extensibility/1.0/">
	<!ENTITY ns_ai "http://ns.adobe.com/AdobeIllustrator/10.0/">
	<!ENTITY ns_graphs "http://ns.adobe.com/Graphs/1.0/">
	<!ENTITY ns_vars "http://ns.adobe.com/Variables/1.0/">
	<!ENTITY ns_imrep "http://ns.adobe.com/ImageReplacement/1.0/">
	<!ENTITY ns_sfw "http://ns.adobe.com/SaveForWeb/1.0/">
	<!ENTITY ns_custom "http://ns.adobe.com/GenericCustomNamespace/1.0/">
	<!ENTITY ns_adobe_xpath "http://ns.adobe.com/XPath/1.0/">
]>
<svg version="1.1"
	 id="Southwest_Logo_1_" xmlns:x="&ns_extend;" xmlns:i="&ns_ai;" xmlns:graph="&ns_graphs;" xmlns:dc="http://purl.org/dc/elements/1.1/" xmlns:cc="http://creativecommons.org/ns#" xmlns:rdf="http://www.w3.org/1999/02/22-rdf-syntax-ns#" xmlns:svg="http://www.w3.org/2000/svg" xmlns:sodipodi="http://sodipodi.sourceforge.net/DTD/sodipodi-0.dtd" xmlns:inkscape="http://www.inkscape.org/namespaces/inkscape" sodipodi:docname="swa_logo_light.svg" inkscape:version="0.48.2 r9819"
	 xmlns="http://www.w3.org/2000/svg" xmlns:xlink="http://www.w3.org/1999/xlink" x="0px" y="0px" width="1000px" height="147.4px"
	 viewBox="0 0 1000 147.4" enable-background="new 0 0 1000 147.4" xml:space="preserve">
<metadata  id="metadata43">
	<rdf:RDF>
		<cc:Work  rdf:about="">
			<dc:format>image/svg+xml</dc:format>
			<dc:type  rdf:resource="http://purl.org/dc/dcmitype/StillImage"></dc:type>
			<dc:title></dc:title>
		</cc:Work>
	</rdf:RDF>
	<sfw  xmlns="&ns_sfw;">
		<slices></slices>
		<sliceSourceBounds  width="999" height="146.4" y="118.1" x="761.5" bottomLeftOrigin="true"></sliceSourceBounds>
	</sfw>
</metadata>
<sodipodi:namedview  inkscape:cx="537.13497" showgrid="false" inkscape:cy="-115.24767" fit-margin-top="0.5" borderopacity="1" inkscape:zoom="0.82659083" fit-margin-left="0.5" gridtolerance="10" pagecolor="#ffffff" guidetolerance="10" objecttolerance="10" id="namedview39" bordercolor="#666666" inkscape:current-layer="Southwest_Logo_1_" inkscape:window-maximized="1" inkscape:window-y="-8" inkscape:window-x="-8" fit-margin-right="0.5" fit-margin-bottom="0.5" inkscape:window-height="1028" inkscape:window-width="1920" inkscape:pageshadow="2" inkscape:pageopacity="0">
	</sodipodi:namedview>
<g id="Type" transform="matrix(4.6848402,0,0,4.6848402,-1.6034932,-8.7525594)">
	<g id="g4">
		<path id="path6" inkscape:connector-curvature="0" fill="#2E4BB1" d="M59,27c-0.9,0.2-2,0.3-3.1,0.3c-3.2,0-3.9-1.1-3.9-3.2V12h-6
			l0,12.8c0,5.7,3.2,8.3,9.6,8.3c3.1,0,6-0.6,9.5-1.4V12H59C59,12,59,27,59,27z M78.5,27.6c-2.2,0-2.5-1-2.5-2.7l0-7.8l5,0v-5h-5V6
			h-6v6l-3,0v5l3,0l0,8.2c0,3.6,0.7,7.8,6.7,7.8c1.8,0,3.3-0.4,5-0.9l-0.6-5C80.2,27.4,79.4,27.6,78.5,27.6z M15.4,16.3
			c-1.1-0.4-2.4-0.8-3.7-1.2c-3.5-1-4.6-1.5-4.6-3.1c0-1.8,1.3-2.7,4.5-2.6c2.6,0,4.9,0.7,7.2,1.5L20.1,5c-2.7-1-5.2-1.9-8.3-1.9
			c-7.2,0-11.2,4.1-11.2,9c0,3.7,1.6,6.1,5.2,7.6c1,0.4,2.3,0.8,3.6,1.2c3.9,1.2,5.1,1.8,5.1,3.3c0,1.8-1.5,2.8-4.6,2.8
			c-2.8,0-5.4-0.8-8.1-2L0.4,31c3,1.2,5.9,2,9.5,2c7.4,0,11.2-4.1,11.2-9.1C21.1,19.9,18.8,17.6,15.4,16.3z M94.2,11
			c-2,0-3.9,0.5-5.2,0.9V2h-6v31h6l0-15.5c1.1-0.4,2.3-0.8,3.8-0.8c2.3,0,3.2,0.9,3.2,3.1L96,33h6l0-13.9C102,13.6,99.5,11,94.2,11
			L94.2,11z M33.4,10.9c-6.1,0-11,4.3-11,11c0,6.7,4.9,11.2,11,11.2c6.1,0,11-4.4,11-11.2S39.5,10.9,33.4,10.9z M33.4,27.1
			c-2.6,0-4.7-1.9-4.7-5.3s2-5.2,4.7-5.2c2.7,0,4.7,1.8,4.7,5.2C38.1,25.3,36,27.1,33.4,27.1z M168.1,20.2c-0.9-0.3-1.8-0.6-2.9-0.9
			c-2.1-0.6-2.9-0.9-2.9-1.8c0-0.9,0.8-1.5,2.7-1.5c2,0,3.8,0.4,5.8,1l1-5.2c-2.2-0.5-4.3-0.9-6.7-0.9c-5.7,0-8.8,2.9-8.8,6.9
			c0,2.8,1.4,4.6,4.2,5.8c0.8,0.3,1.7,0.7,2.8,1c2.2,0.6,3.3,0.9,3.3,1.9c0,1-1.3,1.4-3.1,1.4c-2.2,0-4.2-0.4-6.3-1.2l-0.9,5.2
			c2.6,0.7,5,1.2,7.7,1.2c6,0,8.7-3.1,8.7-7C172.6,23.4,171.5,21.4,168.1,20.2L168.1,20.2z M145.6,10.9c-6.3,0-10.8,4.4-10.8,11.4
			c0,6.5,3.9,10.8,10.9,10.8c3.1,0,5.6-0.9,8.2-2l-0.9-5c-2,0.9-4,1.6-6.4,1.6c-3.6,0-5.1-1.5-5.3-3.7l13.5,0c0,0,0.2-2.4,0.2-2.9
			C155,15.4,151.9,10.9,145.6,10.9L145.6,10.9z M141.4,20c0.4-1.8,1.3-4.1,3.9-4.1c2.6,0,3.4,2.6,3.4,4.1L141.4,20z M184.5,27.6
			c-2.2,0-2.5-1-2.5-2.7l0-7.8l5,0V12h-5V6h-6v6l-3.1,0v5.1l3.1,0l0,8.2c0,3.6,0.9,7.8,6.9,7.8c1.8,0,3.3-0.4,5-0.9l-0.7-5
			C186.2,27.4,185.4,27.6,184.5,27.6L184.5,27.6z M188.5,3.2c-1.5,0-2.6,1.2-2.7,2.7s1.2,2.7,2.6,2.7c1.5,0,2.7-1.2,2.7-2.7
			S190,3.2,188.5,3.2z M188.5,8.1c-1.2,0-2.1-0.9-2.1-2.2c0-1.3,0.9-2.2,2.2-2.2c1.2,0,2.2,0.9,2.1,2.2
			C190.6,7.2,189.7,8.1,188.5,8.1L188.5,8.1z M188.8,6c0.5-0.1,0.8-0.3,0.8-0.8c0-0.5-0.4-0.9-1-0.9l-1,0l0,3.1l0.6,0V6.1
			c0.2,0,0.3,0.1,0.4,0.3l0.7,1h0.7l-0.6-1C189,6.2,188.9,6.1,188.8,6L188.8,6z M188.4,5.7l-0.3,0l0-0.9l0.4,0
			c0.4,0,0.5,0.2,0.5,0.4C189,5.6,188.7,5.7,188.4,5.7z M129.2,12l-3.8,11.5L121.6,12h-5.2l-3.9,11.5L108.7,12h-6.5l7.5,21h5.5
			l3.8-11.4l3.8,11.4h5.5l7.5-21L129.2,12L129.2,12z"/>
	</g>
</g>
<g id="g8" transform="matrix(4.6848402,0,0,4.6848402,-1.6034932,-8.7525594)">
	<g id="g10">
		<path id="path12" inkscape:connector-curvature="0" fill="#CCCCCC" d="M207,10.8c-2,0-3.7,0.7-5,1.4c-1.3-0.7-2.9-1.4-5-1.4
			c-4.1,0-6.7,2.6-6.7,7.2c0,5.5,5.3,10.9,11.7,15.3c6.4-4.3,11.7-9.7,11.7-15.3C213.7,13.4,211,10.8,207,10.8z"/>
		
			<linearGradient id="path21_1_" gradientUnits="userSpaceOnUse" x1="-86.6654" y1="61.428" x2="-71.2084" y2="61.428" gradientTransform="matrix(4.6848 0 0 4.6848 596.9577 -263.2998)">
			<stop  offset="0" style="stop-color:#3656CC"/>
			<stop  offset="0.35" style="stop-color:#304CB2"/>
			<stop  offset="0.72" style="stop-color:#283B80"/>
		</linearGradient>
		<path id="path21" inkscape:connector-curvature="0" fill="url(#path21_1_)" d="M190.9,18.1c0,5.6,6,10.9,11,14.4
			c1.5-1,3-2.2,4.4-3.4c-6.7-5.6-13.1-10.7-15.3-12.5C191,17,190.9,17.5,190.9,18.1L190.9,18.1z"/>
		
			<linearGradient id="path28_1_" gradientUnits="userSpaceOnUse" x1="-86.1968" y1="58.8216" x2="-68.7352" y2="71.0484" gradientTransform="matrix(4.6848 0 0 4.6848 596.9577 -263.2998)">
			<stop  offset="0.3" style="stop-color:#E61C23"/>
			<stop  offset="0.8" style="stop-color:#C3161C"/>
		</linearGradient>
		<path id="path28" inkscape:connector-curvature="0" fill="url(#path28_1_)" d="M212.6,20.7c-4.9-4-7.8-6.1-11-8
			c-0.9-0.5-2.6-1.3-4.5-1.3c-1.8,0-3.4,0.6-4.5,1.7c-0.7,0.7-1.2,1.6-1.4,2.7c2.5,1.8,9.4,6.7,16.3,12.2
			C209.8,25.8,211.7,23.3,212.6,20.7L212.6,20.7z"/>
		
			<linearGradient id="path37_1_" gradientUnits="userSpaceOnUse" x1="-83.8861" y1="58.4842" x2="-73.9024" y2="65.475" gradientTransform="matrix(4.6848 0 0 4.6848 596.9577 -263.2998)">
			<stop  offset="0" style="stop-color:#FDBC11"/>
			<stop  offset="0.25" style="stop-color:#FCB415"/>
			<stop  offset="0.8" style="stop-color:#F89E1C"/>
		</linearGradient>
		<path id="path37" inkscape:connector-curvature="0" fill="url(#path37_1_)" d="M211.3,13.1c-1.1-1.1-2.6-1.7-4.4-1.7
			c-1.9,0-3.3,0.6-4.4,1.2c1.9,1.1,6,3.4,10.3,6.6c0.1-0.4,0.1-0.9,0.1-1.3C213,15.9,212.4,14.2,211.3,13.1z"/>
	</g>
</g>
</svg>
