<?xml version="1.0" encoding="UTF-8" standalone="no"?>
<svg
   xmlns:dc="http://purl.org/dc/elements/1.1/"
   xmlns:cc="http://creativecommons.org/ns#"
   xmlns:rdf="http://www.w3.org/1999/02/22-rdf-syntax-ns#"
   xmlns:svg="http://www.w3.org/2000/svg"
   xmlns="http://www.w3.org/2000/svg"
   xmlns:sodipodi="http://sodipodi.sourceforge.net/DTD/sodipodi-0.dtd"
   xmlns:inkscape="http://www.inkscape.org/namespaces/inkscape"
   width="397"
   height="105.5"
   viewBox="0 0 1720.3333 456.73781"
   version="1.0"
   id="svg2"
   sodipodi:version="0.32"
   inkscape:version="0.91 r13725"
   sodipodi:docname="SriLankan_Airlines_Logo.svg"
   inkscape:output_extension="org.inkscape.output.svg.inkscape">
  <metadata
     id="metadata56">
    <rdf:RDF>
      <cc:Work
         rdf:about="">
        <dc:format>image/svg+xml</dc:format>
        <dc:type
           rdf:resource="http://purl.org/dc/dcmitype/StillImage" />
        <dc:title></dc:title>
      </cc:Work>
    </rdf:RDF>
  </metadata>
  <defs
     id="defs54">
    <inkscape:perspective
       sodipodi:type="inkscape:persp3d"
       inkscape:vp_x="0 : 665.62501 : 1"
       inkscape:vp_y="0 : 1000 : 0"
       inkscape:vp_z="1624.9999 : 665.62501 : 1"
       inkscape:persp3d-origin="812.49998 : 443.75 : 1"
       id="perspective58" />
  </defs>
  <sodipodi:namedview
     inkscape:window-height="705"
     inkscape:window-width="1366"
     inkscape:pageshadow="2"
     inkscape:pageopacity="0.0"
     guidetolerance="10.0"
     gridtolerance="10.0"
     objecttolerance="10.0"
     borderopacity="1.0"
     bordercolor="#666666"
     pagecolor="#ffffff"
     id="base"
     showgrid="false"
     inkscape:zoom="1.8252894"
     inkscape:cx="201.30292"
     inkscape:cy="103.30974"
     inkscape:window-x="-8"
     inkscape:window-y="-8"
     inkscape:current-layer="svg2"
     inkscape:window-maximized="1" />
  <g
     id="g5647">
    <g
       transform="translate(1014.3228,-257.57523)"
       id="g4768">
      <g
         id="#dc001cff"
         transform="matrix(0.54137589,0,0,0.54677317,-1104.1884,257.6033)">
        <path
           inkscape:connector-curvature="0"
           d="m 1106.17,8.11 c 5.1,-2.86 10.72,-4.87 16.57,-5.45 -3.22,5.03 -7.78,9.04 -10.85,14.17 -8.07,12.81 -12.37,27.56 -15.37,42.27 -2.92,13.95 -4.03,28.29 -8.48,41.89 -5.9,19.23 -15.4,37.39 -28.05,53.04 -16.14,19.67 -36.38,35.5 -57.45,49.56 -25.57,17.43 -52.58,33.29 -74.71,55.18 -15.77,15.64 -28.45,34.66 -35.36,55.86 -13.46,39.13 -24.86,79.23 -43.63,116.29 -13.42,26.77 -31.16,51.34 -52.4,72.46 -27.53,27.75 -60.52,49.28 -94.15,68.87 -74.24,42.46 -155.74,70.99 -238.82,90.44 -92.85,21.35 -188.2,31.53 -283.45,31.39 -3.26,0.05 -6.52,-0.07 -9.75,-0.45 84.2,-11.37 167.74,-30.95 246.23,-63.94 71.86,-29.96 139.31,-71.56 195.64,-125.55 12.41,-11.91 24.38,-24.31 35.51,-37.43 25.31,-30.48 43.25,-66.11 60.35,-101.61 8.88,-18.29 17.43,-36.8 27.81,-54.32 15.73,-26.57 37.19,-49.75 62.7,-67.19 30.85,-21.26 66.29,-34.34 101.35,-46.83 20.47,-7.3 41,-14.46 61.07,-22.82 13.3,-5.63 26.67,-11.33 38.89,-19.12 23.21,-14.52 43.91,-34.23 55.77,-59.22 8.15,-16.88 12.05,-35.37 19.01,-52.73 -7.62,3.44 -13.01,10.5 -15.53,18.33 -3.32,10.25 -13.71,16.32 -23.87,17.95 4.57,-3.97 8.62,-8.8 10.33,-14.72 4.18,-13.55 16.42,-24.97 30.95,-25.78 6.89,-12.6 17.03,-23.61 29.69,-30.54 m -18.72,23.31 c -3.33,1.98 -3.69,7.3 -0.6,9.66 3.34,2.96 9.61,0.5 9.68,-4.09 0.57,-4.57 -5.28,-8.24 -9.08,-5.57 z"
           id="path5"
           style="opacity:1;fill:#dc001c" />
      </g>
      <g
         id="#00a61cff"
         transform="matrix(0.54137589,0,0,0.54677317,-1104.1884,257.6033)"
         style="fill:#01742f;fill-opacity:1">
        <path
           inkscape:connector-curvature="0"
           d="m 753.3,238.31 c 25.46,-10.32 51.92,-17.94 78.58,-24.48 -4.66,2.59 -9.77,4.19 -14.58,6.42 -30.14,13.36 -56.65,34.02 -78.83,58.25 -24.89,27.31 -44.68,58.93 -60.77,92.11 -22.39,49.7 -58.35,92.73 -101.77,125.47 -60.73,45.95 -134.06,73.53 -209.01,85.03 -16.19,2.31 -32.48,4.31 -48.84,4.73 21.13,-6.66 42.3,-13.33 62.77,-21.87 55.3,-22.56 106.81,-55.62 147.72,-99.38 22.95,-25.07 44.49,-51.58 62.59,-80.4 9.72,-15.21 18.9,-30.83 30.01,-45.09 12.8,-16.67 27.63,-31.68 43.22,-45.74 25.98,-23.56 56.36,-42.09 88.91,-55.05 z"
           id="path8"
           style="opacity:1;fill:#01742f;fill-opacity:1" />
      </g>
      <g
         id="#f16c00ff"
         transform="matrix(0.54137589,0,0,0.54677317,-1104.1884,257.6033)"
         style="fill:#ff3c00;fill-opacity:1">
        <path
           inkscape:connector-curvature="0"
           d="m 930.56,278.56 c 5.23,-9.16 10.72,-18.37 18.05,-26.02 -3.75,17.01 -7.79,34.03 -9.3,51.42 -2.78,27.26 -1.08,54.68 -0.11,81.98 1.8,32.44 -0.43,65.91 -13.13,96.18 -12.68,29.94 -31.14,57.76 -55.59,79.37 -33.48,29.44 -76.6,46.16 -120.34,52.64 -17.75,2.51 -35.77,4.05 -53.69,2.84 9.35,-6.01 19.47,-10.77 29.06,-16.42 28.78,-16.33 56.88,-34.32 81.37,-56.71 24.63,-22.55 45.21,-49.37 61.57,-78.44 16.09,-28.57 23.61,-60.83 30.95,-92.5 7.44,-32.27 14.89,-65.16 31.16,-94.34 z"
           id="path11"
           style="opacity:1;fill:#ff3c00;fill-opacity:1" />
      </g>
    </g>
    <g
       transform="translate(439.80201,-589.94262)"
       id="g4790">
      <path
         inkscape:connector-curvature="0"
         style="opacity:1;fill:#027499;fill-opacity:1"
         id="path14"
         d="m 46.44,728.26 c 13.93,-10.08 31.75,-12.65 48.54,-12.66 13,0.14 25.96,2.26 38.37,6.12 9.61,3.24 19.42,8.09 25.15,16.84 4.43,6.81 4.24,15.31 3.79,23.11 -2.96,-5.21 -5.32,-10.97 -10.05,-14.9 -13.2,-12 -31.9,-15.5 -49.23,-15.21 -11.47,0.43 -23.3,1.66 -33.8,6.64 -7.13,3.53 -13.71,9.73 -15.1,17.88 -1.55,8.29 1.45,16.75 6.19,23.5 9.31,13.57 23.47,22.87 37.96,30.14 17.06,8 34.64,15.62 49.26,27.77 9.04,7.49 17.1,16.95 20.29,28.46 4.53,16.5 -0.13,34.85 -10.98,47.91 -8.09,9.66 -18.91,16.76 -30.55,21.42 -19.62,7.72 -41.38,9.58 -62.11,6.01 -14.94,-2.78 -29.77,-8.93 -40.56,-19.88 -6.88,-6.89 -9.58,-16.9 -9.29,-26.43 0.28,-5.07 0.32,-10.41 2.65,-15.06 0.69,11.45 7.1,22.06 16.45,28.57 16.55,11.76 37.65,15.21 57.56,13.83 10.79,-0.85 21.96,-3.76 30.34,-10.91 8.81,-7.69 13.81,-19.63 12.85,-31.31 -0.96,-9.93 -6.95,-18.56 -14.03,-25.24 C 105.45,841.47 87.48,832.62 70.56,822.49 57.8,814.64 44.61,806.73 34.96,795.02 29.82,788.76 25.83,781.23 25.22,773.03 23.79,755.78 32.3,738.18 46.44,728.26 Z" />
      <path
         inkscape:connector-curvature="0"
         style="opacity:1;fill:#027499;fill-opacity:1"
         id="path16"
         d="m 315.35,719.47 c 10.85,-4.31 24.35,4.76 24.13,16.5 0.66,11.01 -10.65,20.58 -21.38,18.34 -10.05,-1.38 -16.75,-12.65 -14.19,-22.24 1.29,-5.83 5.82,-10.68 11.44,-12.6 z" />
      <path
         inkscape:connector-curvature="0"
         style="opacity:1;fill:#027499;fill-opacity:1"
         id="path18"
         d="m 247.13,780.12 c 7.9,-5.11 17.71,-6.73 26.96,-5.64 7.61,1.02 14.4,5.67 18.68,11.97 -7.35,-1.97 -15.1,-4.3 -22.68,-2.01 -12.74,3.26 -21.22,14.33 -27.39,25.23 -9.66,16.29 -12.62,35.35 -14.97,53.84 -1.72,14.78 -2.74,29.65 -2.97,44.53 0.15,10.38 1.07,21.66 7.94,30.02 -10.43,-0.08 -20.96,0.58 -31.32,-0.21 -3.16,-8.9 -3.77,-18.44 -4.29,-27.79 -1.26,-23.86 3.91,-47.34 6.43,-70.94 1.54,-16.33 2.45,-32.81 1.31,-49.2 -0.57,-5.25 -3.31,-9.89 -5.95,-14.33 8.7,-0.32 17.42,-0.14 26.13,-0.21 1.62,0.06 3.34,-0.07 4.87,0.63 3.9,4.17 3.89,10.29 4.36,15.63 4.07,-4.07 8,-8.4 12.89,-11.52 z" />
      <path
         inkscape:connector-curvature="0"
         style="opacity:1;fill:#027499;fill-opacity:1"
         id="path20"
         d="m 306.39,775.58 c 10.71,1.56 22.43,4.59 29.38,13.57 5.96,7.57 5.65,17.88 4.39,26.93 -3.06,27.27 -6.75,54.52 -7.54,81.97 -0.17,13.46 -1.23,27.88 5.75,40.01 -9.74,0.03 -19.52,0.43 -29.24,-0.17 -5.31,-8.11 -5.13,-18.49 -5.6,-27.86 0.28,-35.89 6.13,-71.41 10.24,-106.98 0.98,-9.78 -2.98,-19 -7.38,-27.47 z" />
    </g>
    <g
       transform="translate(886.48142,-604.18694)"
       id="g4796">
      <path
         inkscape:connector-curvature="0"
         style="opacity:1;fill:#027499;fill-opacity:1"
         id="path22"
         d="m 490.41,974.85 c 3.95,-0.18 7.9,-0.22 11.85,0 6.69,9.97 9.33,21.96 12.54,33.37 4.63,16.98 7.49,35.19 18.09,49.74 -4,0.08 -8.04,0.47 -12.01,-0.16 -4.42,-4.04 -6.1,-10.16 -8.12,-15.61 -4.14,-12.56 -7.05,-25.48 -10.36,-38.27 -1.82,-6.6 -3.49,-13.29 -6.55,-19.45 -0.46,4.85 -0.7,9.77 -1.92,14.52 -1.69,7 -5.39,13.28 -7.44,20.16 6.75,-0.76 15.01,-0.16 18.95,6.27 -6.78,-1.3 -14.8,-2.22 -20.48,2.62 -8.48,7.46 -11.34,19.12 -12.39,29.94 -4.1,0.13 -8.19,0.14 -12.28,0 1.61,-14.28 8.54,-27.11 14.92,-39.73 6.73,-13.75 14.63,-27.72 15.2,-43.4 z" />
      <path
         inkscape:connector-curvature="0"
         style="opacity:1;fill:#027499;fill-opacity:1"
         id="path24"
         d="m 542.39,975.41 c 4.39,-2.35 10.37,1.65 9.77,6.61 -0.06,5.06 -6.53,8.27 -10.61,5.3 -4.43,-2.53 -3.82,-10 0.84,-11.91 z" />
      <path
         inkscape:connector-curvature="0"
         style="opacity:1;fill:#027499;fill-opacity:1"
         id="path26"
         d="m 606.37,974.81 c 3.77,-0.08 7.55,-0.07 11.33,0.04 2.74,17.97 1.87,36.29 -0.19,54.28 -0.77,9.6 -2.49,19.63 0.98,28.93 -3.88,0.08 -7.76,0.09 -11.63,-0.05 -1.04,-2.87 -1.57,-5.91 -1.42,-8.96 0.4,-24.72 5.66,-49.63 0.93,-74.24 z" />
      <path
         inkscape:connector-curvature="0"
         style="opacity:1;fill:#027499;fill-opacity:1"
         id="path28"
         d="m 634.34,975.42 c 4.12,-2.13 10.27,0.66 10.45,5.56 1.1,6.3 -8.23,10.05 -12.21,5.42 -3.37,-3.03 -2.22,-9.07 1.76,-10.98 z" />
      <path
         inkscape:connector-curvature="0"
         style="opacity:1;fill:#027499;fill-opacity:1"
         id="path30"
         d="m 681.29,998.18 c 6.02,-3.22 13.11,-3.84 19.81,-3.04 8.75,0.99 16.54,8.83 16.58,17.8 -0.07,7.08 -1.42,14.07 -1.74,21.14 -0.37,8.02 -1.01,16.45 2.34,24 -3.61,0 -7.22,-0.02 -10.82,-0.13 -3.03,-11.76 -1.55,-24.03 0.36,-35.84 0.46,-5.49 1.51,-12.62 -3.69,-16.27 -10.74,-7.06 -27.69,-2.19 -32.38,10 -2.88,7 -3.38,14.65 -3.66,22.13 -0.21,6.74 -1.35,13.96 2.21,20.1 -4,0.01 -8.01,0.01 -12,-0.11 -5.26,-20.34 6.29,-41.06 0.02,-61.3 3.95,-0.11 7.91,0 11.86,0.2 0.57,3.16 1.07,6.34 1.53,9.54 2.94,-3.01 5.79,-6.25 9.58,-8.22 z" />
      <path
         inkscape:connector-curvature="0"
         style="opacity:1;fill:#027499;fill-opacity:1"
         id="path32"
         d="m 738.25,1002.3 c 5.64,-5.66 14,-7.37 21.72,-7.42 7.1,0.03 14.92,3.04 18.37,9.62 3.24,6.86 -0.42,15.64 -7.33,18.58 -9.51,4.44 -20.25,7.42 -27.46,15.56 -2.04,1.83 -1.6,4.98 -0.28,7.11 2.85,5.26 9,7.68 14.69,8.1 6.94,0.13 13.19,-3.37 18.95,-6.86 -3.33,4.67 -7.31,9.38 -12.96,11.2 -7.47,2.55 -16.37,2.54 -23.02,-2.15 -8.26,-5.82 -12.33,-16.19 -12.14,-26.08 -0.42,-9.93 2.32,-20.45 9.46,-27.66 m 6.89,7.68 c -5.39,6.67 -6.55,15.68 -5.89,23.99 4.76,-3.21 9.51,-6.52 14.83,-8.77 6.12,-2.95 13.19,-6.46 15.58,-13.3 1.8,-5.47 -3.81,-9.98 -8.74,-10.45 -6.49,-0.72 -11.93,3.84 -15.78,8.53 z" />
      <path
         inkscape:connector-curvature="0"
         style="opacity:1;fill:#027499;fill-opacity:1"
         id="path34"
         d="m 791.22,1002.41 c 3.53,-5 9.81,-7.12 15.71,-7.37 6.7,-0.24 13.88,0.61 19.45,4.67 2.55,1.74 2.78,5.09 3.38,7.86 -2.49,-1.95 -4.58,-4.4 -7.28,-6.06 -5.89,-2.77 -12.93,-2.36 -18.86,0.05 -2.68,1.03 -5.38,3.35 -5.15,6.49 0.55,3.06 2.56,5.65 4.92,7.6 6.79,5.62 16.13,7.25 22.35,13.68 4.3,4.09 6.23,10.5 4.63,16.26 -1.34,5.21 -5.61,9.15 -10.35,11.39 -6.98,3.21 -15.13,3.74 -22.51,1.68 -4.01,-1.16 -7.87,-3.36 -10.35,-6.78 -2.04,-2.9 -1.52,-6.61 -1.61,-9.95 2.03,3.3 3.92,7.05 7.5,8.93 6.47,3.32 14.5,4.54 21.33,1.58 5.72,-2.44 8.31,-10.88 3.88,-15.61 -7.6,-8.3 -19.63,-10.65 -27.06,-19.14 -3.82,-4.21 -3.21,-10.92 0.02,-15.28 z" />
      <path
         inkscape:connector-curvature="0"
         style="opacity:1;fill:#027499;fill-opacity:1"
         id="path36"
         d="m 578.39,1002.44 c 2.88,-2.9 6.09,-6.17 10.46,-6.34 4.38,-0.79 8.82,1.08 11.48,4.62 -4.31,-0.5 -9.48,-1.77 -13.05,1.51 -8.23,7.06 -10.98,18.27 -11.76,28.65 -0.82,9.02 -2.42,18.58 1.37,27.19 -4,0.02 -7.99,0.01 -11.98,-0.12 -1.27,-7.89 -1.78,-15.99 -0.47,-23.91 1.6,-9.95 2.79,-20.02 2.41,-30.12 -0.04,-2.58 -1.1,-4.96 -1.99,-7.32 4.01,0 8.03,-0.01 12.04,0 0.5,1.94 0.99,3.87 1.49,5.84 z" />
      <path
         inkscape:connector-curvature="0"
         style="opacity:1;fill:#027499;fill-opacity:1"
         id="path38"
         d="m 539.63,996.43 c 4.08,1.06 8.99,1.69 11.5,5.53 2.13,2.92 1.79,6.72 1.43,10.12 -1.42,12.23 -3.16,24.49 -2.99,36.83 0.08,3.15 1.02,6.19 2.05,9.15 -3.91,0.1 -7.82,0.12 -11.72,-0.18 -1.65,-3.75 -1.89,-7.9 -1.69,-11.92 0.6,-12.37 2.34,-24.65 3.73,-36.94 0.63,-4.35 -0.86,-8.57 -2.31,-12.59 z" />
      <path
         inkscape:connector-curvature="0"
         style="opacity:1;fill:#027499;fill-opacity:1"
         id="path40"
         d="m 632.1,996.34 c 5.22,1.08 12.02,3.3 12.65,9.55 0.44,9.07 -1.36,18.09 -1.83,27.15 -0.35,8.3 -2.56,17.06 0.96,25.01 -3.82,0.1 -7.69,0.35 -11.44,-0.54 -2.39,-6.21 -1.57,-12.95 -1,-19.4 0.81,-10.04 2.21,-20.01 3.3,-30.01 0.47,-4.12 -1.24,-8 -2.64,-11.76 z" />
    </g>
    <g
       transform="translate(439.80201,-589.94262)"
       style="fill:#0f1e7d;fill-opacity:1"
       id="#3e4e7aff">
      <path
         style="opacity:1;fill:#0f1e7d;fill-opacity:1"
         id="path43"
         d="m 372.72,718.4 c 10,-0.01 20,-0.03 30,0.15 5.37,26.78 5.57,54.26 4.59,81.46 -1.03,38.02 -9.72,75.64 -7.44,113.78 16.48,0.24 33.42,-0.6 49.27,4.8 11.06,3.72 21.04,10.79 32.9,12 -19.51,-7.33 -32.23,-30.15 -26.59,-50.5 2.86,-10.28 10.55,-19 20.26,-23.36 24.26,-10.48 50.96,-13.85 74.98,-24.96 6.57,-3.19 13.59,-7.24 16.58,-14.28 2.88,-9.08 -0.76,-19.82 -8.61,-25.24 -8.82,-6.34 -20.03,-8.04 -30.65,-7.93 -20.3,0.03 -39.96,6.97 -57.45,16.92 3.69,-7.25 10.15,-12.51 16.77,-16.97 14.91,-9.82 33.09,-13.08 50.67,-13.41 11.49,-0.08 23.22,0.37 34.22,3.99 11,3.32 20.12,11.87 24.35,22.53 2.88,7.21 1.64,15.14 1.16,22.67 -1.71,19.08 -6.21,37.8 -7.66,56.92 -0.79,8.63 -0.39,17.31 -0.49,25.98 0.02,11.94 0.83,24.39 6.49,35.17 -9.98,0.11 -19.96,0.33 -29.94,-0.11 -7.3,-32.9 -2.96,-66.75 0,-99.88 -21.05,15.42 -48.55,16.89 -70.46,30.64 -7.86,4.78 -15.44,10.94 -19.29,19.54 -4.43,9.72 -1.26,21.84 6.41,29.02 6.18,5.81 14.99,7.9 23.28,7.6 16.4,-0.71 31.97,-7.86 44.61,-18.09 -6.56,11.99 -18.58,19.66 -30.78,25.01 -14.38,6.31 -30.25,8.99 -45.91,8.04 -13.42,-0.72 -26.59,-3.68 -39.95,-4.92 -19.61,-1.74 -39.29,0.42 -58.69,3.22 -5.93,-16.01 -5.47,-33.46 -4.09,-50.21 2.32,-29.69 6.61,-59.24 7.23,-89.05 0.17,-26.84 3.84,-54.77 -5.77,-80.53 z"
         inkscape:connector-curvature="0" />
      <path
         style="opacity:1;fill:#0f1e7d;fill-opacity:1"
         id="path45"
         d="m 804.76,718.39 c 10.21,0.07 20.42,-0.13 30.63,0.16 4.36,30.63 4.27,61.65 3.35,92.5 -0.38,8.98 -1.56,17.9 -2.01,26.87 14.55,-10.36 24.83,-25.3 38.16,-37.01 12.33,-11.36 27.27,-20.04 43.53,-24.31 11.08,-2.98 22.53,-4.43 33.98,-4.96 -8.92,3.97 -18.41,6.71 -26.75,11.94 -24.91,14.2 -41.05,38.63 -60.78,58.65 13.7,13.25 22.43,30.41 32.41,46.41 8.7,14.47 18.18,28.88 31.26,39.81 4.4,3.76 9.58,6.4 14.43,9.5 -10.63,0.39 -21.32,0.56 -31.93,0.08 -5.37,-2.18 -9.52,-6.53 -13.89,-10.22 -13.96,-12.94 -23.62,-29.58 -32.91,-45.98 -7.75,-13.89 -15.61,-28.28 -27.98,-38.66 -1.26,13.25 -2.65,26.49 -3.67,39.77 -1.03,12.5 -1.66,25.11 -0.34,37.62 0.68,6.13 2.41,12.14 5.35,17.57 -10.12,0.09 -20.25,0.44 -30.35,-0.25 -4.48,-8.57 -4.51,-18.51 -4.64,-27.94 0.83,-42.07 7.79,-83.8 7.65,-125.91 0.14,-15.38 0.06,-30.78 -1.09,-46.13 -0.57,-6.67 -1.95,-13.28 -4.41,-19.51 z"
         inkscape:connector-curvature="0" />
      <path
         style="opacity:1;fill:#0f1e7d;fill-opacity:1"
         id="path47"
         d="m 682.94,780.92 c 16.26,-9.2 35.77,-11.41 54.07,-8.8 14.95,2.19 28.92,11.2 36.27,24.53 5.76,10.06 7.83,22.07 6.19,33.51 -3.53,24.12 -5.6,48.52 -4.92,72.91 0.47,11.99 1.49,24.56 7.86,35.07 -8.81,0 -17.66,0.46 -26.44,-0.18 -6.05,-6.27 -6.54,-15.73 -7.16,-23.96 -0.26,-14.68 -0.77,-29.47 1.36,-44.05 2.07,-16.93 6.17,-33.81 4.82,-50.98 -0.52,-7.58 -3.99,-15.26 -10.39,-19.63 -10.02,-6.94 -22.65,-9 -34.61,-8.2 -17.04,0.92 -34.08,8.63 -44.68,22.23 -5.97,7.44 -8.52,16.83 -11.13,25.83 -4.5,16.19 -5.65,33.05 -5.85,49.79 -0.54,16.44 -3.02,34.79 6.99,49.13 -10.38,-0.1 -20.81,0.67 -31.15,-0.27 -2.82,-8.33 -3.63,-17.13 -4.15,-25.84 -1.45,-19.16 1.78,-38.23 4.55,-57.13 2.9,-18.82 5.31,-37.91 3.78,-56.98 -0.73,-7.94 -2.77,-15.87 -6.98,-22.71 9.55,0.04 19.1,0.11 28.65,0.07 2.83,-0.41 4.17,2.6 4.97,4.79 2.58,8.01 2.5,16.55 2.54,24.88 6.78,-9.55 14.96,-18.45 25.41,-24.01 z"
         inkscape:connector-curvature="0" />
      <path
         style="opacity:1;fill:#0f1e7d;fill-opacity:1"
         id="path49"
         d="m 1001.7,775.86 c 13.26,-4.25 27.37,-5.28 41.22,-4.95 11.26,0.56 23.02,1.47 33.09,7.03 7.43,3.94 13.07,10.66 16.8,18.11 2.62,5.25 1.95,11.28 1.85,16.95 -1.15,21.84 -6.86,43.15 -7.96,65 -0.61,12.67 -1.04,25.4 -0.06,38.07 0.59,7.62 2.28,15.23 5.79,22.06 -8.49,0.12 -16.99,0.17 -25.48,0.14 -1.48,-0.2 -4.01,0.36 -4.17,-1.73 -3.04,-11.23 -3.45,-22.95 -3.82,-34.52 -0.13,-21.33 1.94,-42.59 3.81,-63.81 -14.11,10.1 -30.87,15.28 -47.27,20.32 -14.49,4.95 -29.76,11.04 -39.4,23.55 -9.61,12.59 -4.57,33.3 9.72,40.11 8.63,3.86 18.53,3.27 27.54,1.12 12.26,-2.93 23.96,-8.38 33.79,-16.33 -6.73,12.7 -18.74,21.68 -31.58,27.59 -11.4,5.07 -24.26,7.56 -36.65,5.31 -9.76,-1.67 -18.87,-7.03 -24.89,-14.89 -9.43,-12.11 -10.89,-29.54 -4.22,-43.27 6.76,-14.13 19.74,-24.58 34.52,-29.4 19.57,-7.49 40.38,-11.16 59.79,-19.08 6.27,-2.6 12.44,-5.92 17.1,-10.94 4.42,-5.19 4.72,-12.78 2.55,-18.99 -1.99,-6.06 -6.89,-10.74 -12.43,-13.63 -7.15,-3.79 -15.32,-5.01 -23.31,-5.31 -12.73,-0.5 -25.4,1.99 -37.45,5.98 -8.45,2.66 -16.14,7.15 -24.1,10.95 7.81,-12.75 21.22,-21 35.22,-25.44 z"
         inkscape:connector-curvature="0" />
      <path
         style="opacity:1;fill:#0f1e7d;fill-opacity:1"
         id="path51"
         d="m 1189.28,776.23 c 12.6,-4.88 26.38,-5.84 39.74,-4.71 12.05,1.23 23.98,6.16 32.52,14.91 8.84,8.86 14,21.13 14.63,33.59 0.41,6.68 -1.06,13.26 -1.85,19.86 -3.02,23.21 -4.88,46.69 -3.42,70.1 0.55,9.77 2.28,19.83 7.75,28.15 -9.16,-0.06 -18.35,0.66 -27.47,-0.38 -5.68,-7.66 -6,-17.57 -6.29,-26.71 -0.02,-12.05 -0.42,-24.12 0.65,-36.13 1.44,-15.02 4.89,-29.81 5.55,-44.91 0.3,-8.54 0,-17.81 -5.15,-25.04 -5.5,-7.15 -14.3,-10.97 -22.91,-12.81 -16.32,-3 -33.95,-0.23 -47.98,8.85 -8.68,5.58 -16,13.62 -19.79,23.3 -5.76,14.56 -9.44,30 -10.1,45.68 -0.47,11.34 -0.87,22.69 -1.26,34.05 -0.33,11.69 0.63,24.25 7.63,34.1 -10.69,0.06 -21.39,0.54 -32.05,-0.37 -4.75,-22.53 -4.96,-45.92 -1.3,-68.62 3.61,-23.13 7.82,-46.5 6.16,-70 -0.46,-8.34 -2.72,-16.52 -6.54,-23.94 10.3,0.02 20.59,0.15 30.89,0 5.6,8.92 4.73,19.8 5.12,29.86 8.4,-13.01 20.82,-23.57 35.47,-28.83 z"
         inkscape:connector-curvature="0" />
    </g>
  </g>
</svg>
