<?xml version="1.0" encoding="utf-8"?>
<!-- Generator: Adobe Illustrator 16.2.1, SVG Export Plug-In . SVG Version: 6.00 Build 0)  -->
<!DOCTYPE svg PUBLIC "-//W3C//DTD SVG 1.1//EN" "http://www.w3.org/Graphics/SVG/1.1/DTD/svg11.dtd">
<svg version="1.1" xmlns="http://www.w3.org/2000/svg" xmlns:xlink="http://www.w3.org/1999/xlink" x="0px" y="0px" width="612px"
	 height="141.575px" viewBox="-231.5 -379.103 612 141.575" enable-background="new -231.5 -379.103 612 141.575"
	 xml:space="preserve">
<g id="Guides_For_Artboard">
</g>
<g id="Layer_1">
	<g id="_x23_e60005ff">
		<path fill="#E60005" d="M-118.104-379.103h76.334c-11.799,47.149-23.147,94.434-34.982,141.575H-231.5v-1.47l0.012,1.438
			C-193.793-284.819-155.966-331.977-118.104-379.103 M-126.666-351.82c0.016,10.14-0.026,20.29,0.024,30.435
			c-10.103,0.024-20.209-0.023-30.318,0.024c0.054,8.704,0.054,17.398,0,26.092c10.109,0.056,20.215,0,30.318,0.031
			c-0.05,10.141-0.008,20.297-0.024,30.437c8.775,0.048,17.541,0.024,26.312,0.008c-0.048-10.148,0-20.305-0.024-30.461
			c10.145,0,20.283,0.016,30.431,0c-0.016-8.702-0.016-17.412,0-26.128c-10.145,0-20.283,0-30.431,0.012
			c0.024-10.154-0.024-20.307,0.024-30.458C-109.125-351.849-117.894-351.878-126.666-351.82z"/>
		<path fill="#E60005" d="M-16.822-347.479c8.01-6.958,19.15-8.775,29.425-8.434c9.497,0.415,19.818,2.869,26.289,10.347
			c3.988,4.383,5.371,10.339,5.821,16.089c-7.47,0.06-14.924,0.036-22.395,0.012c-0.401-4.114-2.527-8.386-6.749-9.64
			c-5.505-1.565-12.928-1.335-16.426,3.902c-2.551,4.285,0.143,9.679,4.391,11.612c11.924,6.079,26.682,7.141,36.465,17.06
			c9.423,10.971,7.47,29.889-4.103,38.67c-8.219,6.508-19.232,7.987-29.404,7.422c-9.57-0.604-19.792-3.115-26.567-10.362
			c-4.625-4.848-6.519-11.643-6.421-18.23c7.446-0.016,14.905,0,22.347,0c0.574,3.027,1.257,6.278,3.588,8.487
			c3.688,3.807,9.461,4.323,14.426,3.584c5.017-0.814,9.397-5.428,8.958-10.681c-0.133-3.584-3.04-6.242-6.018-7.812
			c-10.22-5.436-22.593-6.02-32.016-13.128C-27.448-317.333-28.306-337.738-16.822-347.479z"/>
		<path fill="#E60005" d="M234.653-347.394c7.669-6.763,18.334-8.654,28.248-8.577c9.592,0.306,20.062,2.38,26.916,9.655
			c4.402,4.431,6.111,10.73,6.497,16.82c-7.49,0.085-14.961,0.093-22.438,0c-0.425-3.868-2.186-7.995-6.127-9.361
			c-4.971-1.708-11.182-1.673-15.417,1.782c-3.378,2.775-3.318,8.312-0.37,11.372c3.14,3.227,7.649,4.411,11.785,5.726
			c8.496,2.611,17.396,4.931,24.652,10.313c12.651,9.24,12.567,30.197,1.084,40.349c-8.105,7.43-19.685,9.389-30.317,8.948
			c-9.922-0.517-20.693-2.924-27.68-10.554c-4.629-4.796-6.429-11.583-6.444-18.103c7.47-0.016,14.956,0,22.426-0.016
			c0.645,2.976,1.169,6.207,3.497,8.388c4.299,4.395,11.356,4.824,16.899,3.016c6.056-2.082,9.075-10.8,3.989-15.393
			c-4.967-4.275-11.595-5.718-17.658-7.736c-8.4-2.44-17.428-5.511-22.824-12.856C224.22-323.631,225.196-339.145,234.653-347.394z"
			/>
		<path fill="#E60005" d="M315.967-347.845c9.115-7.393,21.592-8.887,32.94-7.751c8.678,0.805,17.853,3.93,23.312,11.103
			c3.409,4.253,4.554,9.733,4.963,15.012c-7.438,0.071-14.869-0.014-22.299,0.048c-0.747-2.71-1.192-5.798-3.528-7.665
			c-4.173-3.467-10.348-3.443-15.267-1.782c-3.989,1.31-6.493,5.851-5.149,9.916c1.327,4.287,5.77,6.346,9.688,7.714
			c9.679,3.274,20.102,5.338,28.506,11.498c12.786,9.183,12.699,30.365,1.128,40.514c-7.863,7.164-19.021,9.179-29.332,8.904
			c-9.767-0.405-20.272-2.459-27.576-9.445c-5.269-4.895-7.581-12.206-7.479-19.251c7.455,0.008,14.909,0.008,22.355,0
			c0.588,4.768,3.091,9.596,7.859,11.28c5.714,1.892,13.351,1.784,17.261-3.513c3.194-3.934,2.305-10.295-2.118-12.949
			c-10.752-6.934-24.846-6.727-34.883-15.075C304.722-318.485,304.483-338.438,315.967-347.845z"/>
		<path fill="#E60005" d="M47.636-353.797c7.702-0.018,15.401,0.024,23.102-0.026c5.096,20.169,10.198,40.347,15.109,60.572
			c5.976-20.16,11.737-40.387,17.698-60.564c7.597,0.018,15.202,0.018,22.808,0.018c6.016,20.096,11.507,40.371,17.833,60.387
			c4.665-20.188,9.974-40.228,14.853-60.363c7.713-0.042,15.465-0.042,23.182-0.012c-8.393,30.264-16.677,60.558-25.156,90.788
			c-8.062-0.012-16.125-0.028-24.19,0c-6.044-20.646-12.048-41.324-17.865-62.05c-6.179,20.622-11.933,41.388-18.012,62.038
			c-8.042,0.012-16.093-0.052-24.139,0.035C64.179-293.164,56.2-323.575,47.636-353.797z"/>
		<path fill="#E60005" d="M191.255-262.997c-0.087-30.262-0.008-60.536-0.031-90.8c7.844,0,15.699,0,23.562,0
			c-0.027,30.264,0.048,60.53-0.044,90.789C206.919-263.009,199.083-263.025,191.255-262.997z"/>
	</g>
</g>
</svg>
