<?xml version="1.0" encoding="utf-8"?>
<!-- Generator: Adobe Illustrator 17.1.0, SVG Export Plug-In . SVG Version: 6.00 Build 0)  -->
<!DOCTYPE svg PUBLIC "-//W3C//DTD SVG 1.1 Tiny//EN" "http://www.w3.org/Graphics/SVG/1.1/DTD/svg11-tiny.dtd">
<svg version="1.1" baseProfile="tiny" id="Layer_1" xmlns="http://www.w3.org/2000/svg" xmlns:xlink="http://www.w3.org/1999/xlink"
	 x="0px" y="0px" viewBox="0 0 384.723 101.506" xml:space="preserve">
<g>
	<path fill="#FFFFFF" d="M86.322,6.299c-3.569-3.011-6.417-3.832-11.164-3.832H2.742l47.445,92.752
		c1.826,3.568,4.217,5.064,7.599,5.064h61.821c2.871,0,4.584-1.483,5.747-4.076l8.474-18.892l10.071-22.452L86.322,6.299z"/>
	<path fill="#DF173B" d="M86.548,3.968C82.852,0.85,79.903,0,74.987,0H0l49.13,96.046c1.891,3.695,4.366,5.244,7.869,5.244h64.016
		c2.973,0,4.746-1.535,5.951-4.221l8.775-19.563l10.429-23.249L86.548,3.968z M98.939,30.614c0.514-0.068,0.936-0.152,1.455-0.08
		c0.687,0.095,0.72,1.091,0.532,1.599c-0.304,0.82-1.272,1.918-2.016,2.378c-0.337,0.208-0.704,0.046-1.081,0.067
		c-0.58,0.032-0.931-0.587-1.117-1.044c0.234,0.574-0.395-0.939,0,0C96.277,32.504,97.949,30.713,98.939,30.614z M94.274,51.218
		c0.024-1.017,0.28-1.987,0.306-3.019c0.043-1.713,0.357-3.244,0.477-4.903c0.068-0.945,0.168-2.172,0.68-2.972
		c0.439-0.686,0.734-1.332,1.535-1.675c0.327-0.14,0.783-0.16,1.135-0.125c0.711,0.071,0.243,0.58,0.543,0.908
		c0.033-0.052,0.076-0.063,0.131-0.034c0.002,0.102,0.004,0.204,0.004,0.307c0.352,0.032-0.028,0.489-0.012,0.744
		c0.062,0.576,0.006,1.118-0.267,1.663c0.069,0.018,0.139,0.024,0.21,0.017c0.002,0.019-0.051,0.173-0.062,0.187
		c-0.202,0.132-0.168,0.185-0.141,0.581c0.015,0.222,0.143,0.687-0.025,0.864c-0.029,0.03-0.035,0.646-0.014,0.747
		c0.03,0.148-0.022,1.11-0.008,1.129c0.042-0.014,0.075-0.039,0.1-0.075c-0.039-0.012,0.058,1.254-0.034,1.358
		c-0.133,0.15-0.298,0.314-0.259,0.54c0.016,0.096,0.34,0.765,0.242,0.813c-0.094,0.054-0.166-0.201-0.209-0.201
		c-0.143,0,0.245,0.542,0.212,0.588c-0.075,0.103-0.289-0.361-0.377,0.027c-0.084,0.371-0.025,0.785-0.002,1.16
		c0.021,0.339-0.014,0.635-0.028,0.973c-0.024,0.557,0.187,1.254-0.072,1.777c-0.594,1.202-3.266,3.083-4.15,1.273
		c0.1,0.214,0.264,0.571-0.015-0.025c-0.066-0.145-0.048-0.108-0.007-0.023C93.829,53.043,94.255,52.026,94.274,51.218z
		 M73.623,49.84c-0.028-0.191,1.371-0.644,1.555-0.696c0.273-0.077,0.633-0.026,0.903,0.034c0.607,0.136,0.52,0.382,0.694,0.854
		c0.191,0.517,0.237,0.613,0.122,1.186c-0.097,0.483-0.233,0.915-0.691,1.171c-0.535,0.43-1.073,0.869-1.605,1.294
		c-0.53,0.423-0.955,0.931-1.284,1.527c-0.189,0.342-0.158,0.72-0.303,1.041c-0.36,0.796-0.312,1.624-0.415,2.452
		c-0.227,1.808-0.044,3.648-0.28,5.443c-0.185,1.405-1.726,3.192-3.309,3.081c-1.266-0.089-1.273-1.62-1.247-2.57
		c0.015-0.56,0.126-1.082,0.184-1.635c0.061-0.574-0.082-0.974,0.048-1.557c0.081-0.362-0.099-0.764-0.025-1.18
		c0.04-0.224,0.047-0.39,0.094-0.599c0.157-0.704,0.186-1.45,0.241-2.167c0.124-1.618-0.046-3.321,0.397-4.891
		c0.201-0.711,0.761-1.204,1.339-1.637c0.285-0.193,1.106-0.221,1.282-0.482c0.718,0.188,1.753-0.489,2.419-0.646
		C73.724,49.788,73.684,49.781,73.623,49.84z M55.915,60.076c-0.091,0.293-0.248,0.568-0.284,0.877
		c-0.038,0.325,0.065,0.565-0.055,0.89c-0.109,0.298-0.175,0.527-0.2,0.845c-0.05,0.646-0.278,1.26-0.362,1.902
		c-0.029,0.222-0.13,0.617,0.005,0.825c0.121,0.186,0.279,0.289,0.233,0.544c-0.13,0.718-0.524,1.317-0.663,2.022
		c-0.077,0.387-0.334,1.388-0.137,1.741c0.192,0.343-0.169,1.138-0.309,1.596c-0.321,1.056-0.503,2.348-0.569,3.444
		c-0.083,1.39-0.408,2.709-0.507,4.09c-0.128,1.789-0.269,3.765-0.678,5.516c-0.169,0.725-0.451,1.578-1.129,1.982
		c-0.663,0.396-1.701,0.4-2.23-0.203c-0.776-0.885-0.85-2.403-1.085-3.496c-0.309-1.437-0.372-2.914-0.709-4.347
		c-0.122-0.522-0.024-1.414-0.382-1.834c-0.12-0.141-0.238-0.902-0.259-1.104c-0.04-0.381,0.067-0.711-0.01-1.114
		c-0.073-0.38-0.179-0.744-0.272-1.117c-0.315-1.269-0.507-2.712-0.645-4.016c-0.136-1.282-0.44-2.523-0.553-3.818
		c-0.128-1.464-0.48-2.884-0.639-4.345c-0.135-1.233-0.101-2.585-0.572-3.75c-0.134-0.331-0.291-0.656-0.294-1.021
		c-0.001-0.116,0.155-0.498,0.1-0.607c-0.119-0.232-0.341,0.096-0.367-0.255c-0.079-1.091-1.185,0.295-1.086,0.748
		c-0.342-0.285-0.276,0.354-0.272,0.522c0.008,0.289-0.35,0.661-0.468,0.935c-0.451,1.049-0.618,2.241-1.046,3.325
		c-0.365,0.924-0.747,1.947-1.554,2.58c-0.818,0.641-2.054,0.445-2.559-0.507c-0.532-1.004,0.207-2.205,0.521-3.157
		c0.377-1.141,0.638-2.37,1.174-3.45c0.535-1.079,0.825-2.349,1.208-3.49c0.673-2.002,1.366-4.023,1.945-6.053
		c0.484-1.698,1.536-4.254,3.755-3.003c1.058,0.596,1.167,1.789,1.359,2.885c0.222,1.274,0.424,2.548,0.649,3.821
		c0.29,1.643,0.58,3.138,0.74,4.812c0.072,0.753,0.326,1.468,0.56,2.182c0.19,0.576,0.226,1.264,0.453,1.814
		c0.145,0.351,0.068,0.781,0.167,1.194c0.147,0.613,0.181,1.224,0.38,1.827c0.214,0.649-0.198,1.251,0.017,1.843
		c0.181,0.497,0.522,1.22,0.404,1.753c-0.112,0.509,0.119,0.946,0.098,1.473c-0.018,0.459,0.321,0.727,0.2,1.238
		c-0.107,0.476,0.461,0.562,0.59,0.029c0.095-0.392,0.11-0.803,0.126-1.204c0.046-1.155,0.232-2.317,0.454-3.451
		c0.602-3.083,1.015-6.195,1.633-9.277c1.185-5.9,2.934-11.624,4.424-17.431c0.328-1.277,0.913-2.471,1.311-3.733
		c0.47-1.49,1.044-2.947,1.585-4.412c1.131-3.06,2.236-6.125,3.41-9.168c0.802-2.079,1.91-4.914,4.538-5.085
		c2.239-0.146,3.976,2.327,3.313,4.407c-0.175,0.549-0.583,0.941-0.874,1.418c-0.08,0.131-0.052,0.312-0.091,0.458
		c-0.082,0.306-0.237,0.209-0.445,0.388c-0.863,0.744-1.754,1.563-2.377,2.532c-1.329,2.068-2.087,4.37-3.169,6.584
		c-0.313,0.639-0.341,1.358-0.643,2.015c-0.24,0.521-0.608,1.006-0.758,1.563c-0.338,1.261-0.967,2.439-1.33,3.691
		c-0.22,0.761-0.207,1.53-0.594,2.25c-0.134,0.229-0.01,0.501-0.101,0.741c-0.159,0.148-0.244,0.421-0.305,0.621
		c-0.361,1.194-0.822,2.401-0.898,3.656c-0.045,0.739-0.166,1.034-0.555,1.622c-0.286,0.432-0.307,1.027-0.521,1.498
		c-0.562,1.241-0.919,2.59-1.293,3.898c-0.19,0.663-0.27,1.376-0.394,2.053c-0.107,0.584-0.323,1.121-0.327,1.722
		c-0.005,0.628-0.181,0.922-0.397,1.479c-0.194,0.502-0.016,1.047-0.151,1.555c0.057-0.071,0.082-0.065-0.063,0.224
		C55.817,59.489,56.004,59.79,55.915,60.076z M64.922,56.738c0.223,0.596-0.267,1.542-0.255,2.159
		c0.013,0.677-0.156,1.438-0.227,2.119c-0.088,0.848-0.229,1.66-0.345,2.513c-0.109,0.804-0.152,1.61-0.248,2.414
		c-0.09,0.75-0.025,1.579-0.211,2.306c-0.123,0.48-0.305,1.011-0.292,1.511c0.006,0.25,0.158-0.011,0.282,0.054
		c0.161,0.085-0.191,0.706-0.304,0.286c-0.088,0.077-0.039,0.279-0.153,0.326c-0.245,0.101-0.301,0.045-0.529,0.302
		c-0.343,0.386-1.082,0.801-1.556,1.007c-1.608,0.7-1.574-1.425-1.612-2.324c-0.085-2.023,0.376-4.168,0.317-6.145
		c-0.016-0.52,0.114-1.062,0.183-1.577c0.066-0.484-0.008-0.88-0.008-1.333c0.001-1.021,0.108-2.449,0.514-3.365
		c0.55-1.273,1.34-2.384,2.723-2.806c0.455-0.14,1.093-0.156,1.372,0.311c0.135,0.226,0.144,1.263,0.486,1.257
		c0.003,0.032-0.015,0.046-0.038,0.05c-0.081,0.049-0.286,0.05-0.302,0.228C64.697,56.295,64.834,56.503,64.922,56.738z
		 M63.84,48.872c-0.239,0.034-1.116,0.117-1.142-0.276c-0.015-0.23-0.311-0.458-0.331-0.789c-0.022-0.358,0.09-0.717,0.221-1.047
		c0.357-0.896,0.911-1.159,1.592-1.743c0.412-0.353,1.468-1.043,2.036-0.656c0.31,0.212,0.822,1.105,0.601,1.488
		c-0.018,0.031,0.17-0.293,0,0c-0.18,0.307-0.201,0.749-0.372,1.028c-0.29,0.472-0.682,0.741-1.103,1.071
		C64.898,48.296,64.417,48.789,63.84,48.872z M123.489,47.564c-1.13,0.731-2.451,1.161-3.726,1.562
		c-2.844,0.893-5.42,2.053-8.053,3.45c-2.64,1.4-5.349,2.672-7.913,4.211c-2.366,1.42-4.722,2.831-7.121,4.198
		c-1.03,0.587-1.89,1.366-2.931,1.94c-0.606,0.334-1.209,0.734-1.738,1.191c-0.437,0.377-1.103,0.766-1.472,1.186
		c-0.694,0.79,0.024,1.907-0.378,2.734c-0.127,0.26-0.015,0.176,0.081,0.347c0.104,0.187-0.08,0.458-0.133,0.625
		c-0.148,0.469-0.034,1.417-0.018,1.925c0.014,0.45,0.087,0.884,0.068,1.337c-0.018,0.452-0.261,0.955-0.04,1.393
		c0.076,0.592-0.174,1.173-0.145,1.766c0.03,0.621,0.078,1.205,0.069,1.832c-0.004,0.301,0.02,0.608,0.142,0.888
		c-0.101,0.112-0.278,0.201-0.339,0.346c-0.172,0.412,0.243,0.42,0.267,0.674c-0.057,0.088-0.146,0.123-0.265,0.106
		c0.166,0.292,0.343,0.651,0.167,0.95c-0.129,0.218-0.276,0.436-0.077,0.674c-0.086,0.228,0.354,0.409,0.254,0.62
		c-0.075,0.16-0.224,0.294-0.288,0.456c-0.121,0.304,0.371,0.378,0.076,0.647c-0.2,0.183-0.015,0.327,0.118,0.471
		c0.246,0.266-0.109,0.294-0.073,0.605c0.071,0.616,0.469,1.166,0.46,1.797c-0.009,0.621-0.494,1.116,0.087,1.515
		c0.304,0.208,0.639,1.843-0.042,1.635c0.319,0.097-0.024,0.518,0.009,0.723c0.056,0.349,0.722,0.271,0.745,0.74
		c0.011,0.227-0.204,0.365-0.387,0.435c0.073,0.212,0.14,0.426,0.242,0.626c0.135,0.268,0.418,0.631,0.226,0.986
		c-0.063,0.116-0.199,0.155-0.162,0.318c0.093,0.401-0.071,0.221-0.238,0.625c-0.226,0.549-0.79,0.944-1.328,1.149
		c-1.244,0.476-2.627-0.109-3.247-1.257c-0.635-1.174-0.437-2.652-0.391-3.932c0.059-1.67,0.178-3.337,0.191-5.008
		c0.021-2.656,0.182-5.359,0.063-8.021c-0.023-1.542-0.03-3.083-0.01-4.625c0.01-0.772,0.026-1.544,0.051-2.316
		c0.008-0.258,0.234-0.926-0.215-0.76c-1.242,0.459-2.382,1.66-3.384,2.486c-3.251,2.679-6.487,5.372-9.823,7.952
		c-1.061,0.821-1.991,1.754-2.928,2.709c-1.005,1.023-2.191,1.875-3.135,2.948c-0.888,1.009-1.802,1.965-2.724,2.942
		c-0.977,1.036-1.883,2.286-3.005,3.167c-0.44,0.324-0.862,0.687-1.23,1.091c-0.339,0.371-1.182,0.447-1.677,0.369
		c-1.112-0.175-2.138-1.211-2.033-2.379c0.099-1.097,1.02-1.975,1.749-2.713c1.077-1.091,2.147-2.181,3.284-3.21
		c4.385-3.97,8.946-7.752,13.561-11.447c2.362-1.891,4.884-3.561,7.305-5.374c1.233-0.923,2.437-1.88,3.704-2.758
		c0.734-0.509,0.622-1.6,0.575-2.404c-0.038-0.66-1.225,0.234-1.485,0.5c-0.229,0.234-1.122,0.479-1.432,0.545
		c-0.705,0.151-1.555,0.36-2.274,0.295c-0.686-0.061-2.154-0.594-2.399-1.36c-0.212-0.665-0.523-1.321-0.488-2.037
		c0.034-0.681,0.109-1.36,0.109-2.042c0-0.6-0.195-1.182-0.174-1.776c0.024-0.697,0.182-1.381,0.211-2.08
		c0.054-1.341,0.247-2.754,0.835-3.975c0.812-2.201,2.311-4.25,4.563-5.117c1.011-0.389,2.14-0.216,1.885,1.091
		c-0.201,1.029-0.912,1.537-1.439,2.357c-0.023,0.25-0.301,0.424-0.426,0.618c-0.168,0.261-0.278,0.552-0.379,0.843
		c-0.179,0.52-0.455,0.949-0.557,1.492c-0.083,0.445-0.331,0.853-0.376,1.302c-0.058,0.587,0.04,1.163-0.023,1.769
		c-0.122,1.185-0.747,3.48,0.352,4.378c0.684,0.559,1.789,0.133,2.345-0.397c0.728-0.695,1.139-1.76,1.187-2.755
		c0.088-1.679,0.565-3.316,0.579-5c0.014-1.681,0.213-3.362,0.302-5.039c0.074-1.378,0.495-2.637,1.958-3.028
		c1.431-0.382,2.291,0.577,2.277,1.925c-0.025,2.339-0.392,4.646-0.536,6.991c-0.203,3.288-0.529,6.486-0.511,9.794
		c0.28,0.239,2.822-1.682,3.121-1.881c1.682-1.116,3.389-2.192,5.111-3.246c2.628-1.22,4.983-2.938,7.57-4.235
		c1.299-0.665,2.538-1.438,3.806-2.159c0.361-0.205,2.788-1.274,2.035-1.722c-0.996-0.593-0.859-2.133-0.773-3.097
		c0.115-1.282,0.038-2.56,0.061-3.838c0.021-1.189,1.205-5.251-1.274-4.578c-0.519,0.141-0.88,0.47-1.266,0.828
		c-0.354,0.329-0.458,0.906-1.038,0.974c-0.167,0.357,0.067,0.315-0.325,0.677c0.111,0.312-0.249,1.017-0.324,1.349
		c-0.051,0.226,0.088,0.416-0.137,0.538c-0.201,0.109-0.199,0.187-0.031,0.377c0.299,0.339-0.322,0.258-0.227,0.572
		c0.161,0.532,0.064,0.616-0.141,1.088c-0.187,0.43,0.216,0.716,0.245,1.128c-0.001-0.016-0.35-0.06-0.35-0.062
		c-0.083,0.527-0.25,1.356-0.075,1.87c0.055,0.161,0.221,0.381,0.12,0.561c-0.082,0.146-0.214,0.348-0.135,0.526
		c0.092,0.207,0.296,0.267,0.175,0.518c-0.074,0.155-0.285,0.367-0.227,0.561c0.074,0.248,0.015,0.475,0.046,0.725
		c0.026,0.207-0.27,0.311-0.313,0.5c-0.101,0.443-0.091,0.575-0.489,0.926c-0.272,0.24-0.521,0.466-0.848,0.632
		c-0.654,0.332-1.665,0.583-2.28,0.035c-0.806-0.719-0.426-2.512-0.353-3.443c0.126-1.613,0.16-3.224,0.25-4.838
		c0.125-2.237-0.3-5.762,2.169-6.894c0.921-0.422,2.012-0.479,2.997-0.285c0.912,0.377,1.861-0.812,2.363-1.4
		c1.047-1.227,4.156-3.274,5.331-1.024c0.225,0.43,0.267,0.927,0.372,1.394c0.057,0.254,0.132,0.504,0.246,0.739
		c-0.158,0.118-0.332,0.262-0.343,0.477c-0.012,0.232,0.485,1.81,0.267,1.954c-0.425,0.28-0.204,0.575-0.244,1.09
		c-0.038,0.492-0.319,1.396-0.018,1.838c0.17,0.25-0.002,0.295-0.057,0.576c-0.057,0.293,0.184,0.619,0.171,0.928
		c-0.022,0.503,0.143,1.391-0.114,1.841c-0.019,0.335,0.435,0.741,0.235,0.957c-0.214,0.23,0.407,0.749,0.56,0.962
		c0.557,0.777,2.721-0.669,3.248-0.955c1.096-0.594,2.384-1.428,3.688-1.334c1.316,0.094,1.633,0.43,2.166,1.639
		C125.331,45.849,124.335,47.017,123.489,47.564z"/>
	<g>
		<rect x="308.596" y="61.308" fill="#333E48" width="3.507" height="36.501"/>
		<rect x="308.596" y="52.145" fill="#333E48" width="3.507" height="4.254"/>
		<path fill="#333E48" d="M227.526,60.449c-6.871,0-10.807,3.793-13.169,7.872c-2.004-4.222-5.94-7.872-12.31-7.872
			c-6.513,0-9.805,3.578-12.167,7.371v-6.513h-3.507v36.501h3.507V76.767c0-7.372,5.153-13.097,11.666-13.097
			s10.664,4.652,10.664,12.238v21.901h3.507V76.552c0-8.159,5.368-12.882,11.523-12.882c6.728,0,10.807,4.581,10.807,12.453v21.686
			h3.507V75.693C241.553,66.533,236.186,60.449,227.526,60.449z"/>
		<path fill="#333E48" d="M262.944,60.449c-9.876,0-17.32,8.445-17.32,19.037v0.143c0,11.38,8.302,19.037,17.893,19.037
			c7.014,0,11.379-2.863,15.101-6.871l-2.433-2.147c-3.006,3.221-6.871,5.726-12.525,5.726c-7.157,0-13.67-5.296-14.314-14.386
			h30.274c0.072-0.573,0.072-0.787,0.072-1.431C279.692,68.751,273.179,60.449,262.944,60.449z M249.346,77.841
			c0.644-8.087,6.227-14.171,13.455-14.171c8.374,0,12.596,6.799,13.098,14.171H249.346z"/>
		<path fill="#333E48" d="M287.347,71.685V61.308h-3.507v36.501h3.507V82.85c0-11.88,7.372-18.25,15.817-18.25h0.358v-3.864
			C296.294,60.449,290.211,65.173,287.347,71.685z"/>
		<path fill="#333E48" d="M335.925,95.375c-8.374,0-15.03-7.014-15.03-15.817v-0.143c0-8.731,6.441-15.674,14.743-15.674
			c5.44,0,9.018,2.791,12.167,6.012l2.505-2.576c-3.435-3.579-7.729-6.728-14.6-6.728c-10.449,0-18.608,8.875-18.608,19.109v0.143
			c0,10.234,8.087,18.966,18.608,18.966c6.728,0,11.165-3.006,14.886-7.228l-2.433-2.147
			C345.086,92.727,341.078,95.375,335.925,95.375z"/>
		<path fill="#333E48" d="M381.001,64.743c-2.648-2.648-6.584-4.008-11.523-4.008c-5.01,0-8.946,1.288-12.954,3.149l1.288,3.078
			c3.364-1.718,7.014-2.934,11.451-2.934c7.515,0,12.024,3.793,12.024,11.165h-12.095c-9.448,0-15.96,4.294-15.96,11.88v0.143
			c0,7.587,7.3,11.451,14.099,11.451c6.942,0,11.451-3.435,13.956-6.942v6.083h3.436V75.049
			C384.723,70.541,383.434,67.177,381.001,64.743z M381.359,84.139c0,6.656-6.37,11.236-13.813,11.236
			c-5.582,0-10.592-3.078-10.592-8.374v-0.143c0-5.082,4.294-8.517,12.024-8.517h12.382V84.139z"/>
		<path fill="#333E48" d="M166.029,60.735c-5.01,0-8.946,1.288-12.954,3.149l1.288,3.078c3.364-1.718,7.014-2.934,11.451-2.934
			c7.515,0,12.024,3.793,12.024,11.165h-12.095c-9.448,0-15.96,4.294-15.96,11.88v0.143c0,7.587,7.3,11.451,14.099,11.451
			c6.942,0,11.451-3.435,13.956-6.942v6.083h3.436V75.049c0-4.509-1.288-7.872-3.722-10.306
			C174.904,62.095,170.967,60.735,166.029,60.735z M177.909,84.139c0,6.656-6.37,11.236-13.813,11.236
			c-5.582,0-10.592-3.078-10.592-8.374v-0.143c0-5.082,4.294-8.517,12.024-8.517h12.382V84.139z"/>
	</g>
</g>
</svg>
